<?xml version="1.0" encoding="utf-8" standalone="no"?>
<!DOCTYPE svg PUBLIC "-//W3C//DTD SVG 1.1//EN"
  "http://www.w3.org/Graphics/SVG/1.1/DTD/svg11.dtd">
<svg xmlns:xlink="http://www.w3.org/1999/xlink" width="918.72pt" height="524.88pt" viewBox="0 0 918.72 524.88" xmlns="http://www.w3.org/2000/svg" version="1.1">
 <metadata>
  <rdf:RDF xmlns:dc="http://purl.org/dc/elements/1.1/" xmlns:cc="http://creativecommons.org/ns#" xmlns:rdf="http://www.w3.org/1999/02/22-rdf-syntax-ns#">
   <cc:Work>
    <dc:type rdf:resource="http://purl.org/dc/dcmitype/StillImage"/>
    <dc:date>2026-05-14T13:39:43.610428</dc:date>
    <dc:format>image/svg+xml</dc:format>
    <dc:creator>
     <cc:Agent>
      <dc:title>Matplotlib v3.9.4, https://matplotlib.org/</dc:title>
     </cc:Agent>
    </dc:creator>
   </cc:Work>
  </rdf:RDF>
 </metadata>
 <defs>
  <style type="text/css">*{stroke-linejoin: round; stroke-linecap: butt}</style>
 </defs>
 <g id="figure_1">
  <g id="patch_1">
   <path d="M 0 524.88 
L 918.72 524.88 
L 918.72 0 
L 0 0 
z
" style="fill: #fbfbf8"/>
  </g>
  <g id="axes_1">
   <g id="patch_2">
    <path d="M 63.459 440.1252 
L 311.211 440.1252 
Q 315.675 440.1252 315.675 435.69 
L 315.675 114.138 
Q 315.675 109.7028 311.211 109.7028 
L 63.459 109.7028 
Q 58.995 109.7028 58.995 114.138 
L 58.995 435.69 
Q 58.995 440.1252 63.459 440.1252 
z
" clip-path="url(#p862c10a0f9)" style="fill: #ffffff; stroke: #d9dfdf; stroke-linejoin: miter"/>
   </g>
   <g id="patch_3">
    <path d="M 60.39 118.296 
L 314.28 118.296 
L 314.28 111.0888 
L 60.39 111.0888 
z
" clip-path="url(#p862c10a0f9)" style="fill: #6e91b2"/>
   </g>
   <g id="patch_4">
    <path d="M 81.873 152.946 
L 165.015 152.946 
Q 169.479 152.946 169.479 148.5108 
L 169.479 134.6508 
Q 169.479 130.2156 165.015 130.2156 
L 81.873 130.2156 
Q 77.409 130.2156 77.409 134.6508 
L 77.409 148.5108 
Q 77.409 152.946 81.873 152.946 
z
" clip-path="url(#p862c10a0f9)" style="fill: #6e91b2"/>
   </g>
   <g id="patch_5">
    <path d="M 80.478 283.5072 
L 84.942 283.5072 
L 84.942 279.072 
L 80.478 279.072 
z
" clip-path="url(#p862c10a0f9)" style="fill: #6e91b2"/>
   </g>
   <g id="patch_6">
    <path d="M 80.478 311.2272 
L 84.942 311.2272 
L 84.942 306.792 
L 80.478 306.792 
z
" clip-path="url(#p862c10a0f9)" style="fill: #6e91b2"/>
   </g>
   <g id="patch_7">
    <path d="M 80.478 338.9472 
L 84.942 338.9472 
L 84.942 334.512 
L 80.478 334.512 
z
" clip-path="url(#p862c10a0f9)" style="fill: #6e91b2"/>
   </g>
   <g id="patch_8">
    <path d="M 80.478 366.6672 
L 84.942 366.6672 
L 84.942 362.232 
L 80.478 362.232 
z
" clip-path="url(#p862c10a0f9)" style="fill: #6e91b2"/>
   </g>
   <g id="patch_9">
    <path d="M 335.205 440.1252 
L 582.957 440.1252 
Q 587.421 440.1252 587.421 435.69 
L 587.421 114.138 
Q 587.421 109.7028 582.957 109.7028 
L 335.205 109.7028 
Q 330.741 109.7028 330.741 114.138 
L 330.741 435.69 
Q 330.741 440.1252 335.205 440.1252 
z
" clip-path="url(#p862c10a0f9)" style="fill: #ffffff; stroke: #d9dfdf; stroke-linejoin: miter"/>
   </g>
   <g id="patch_10">
    <path d="M 332.136 118.296 
L 586.026 118.296 
L 586.026 111.0888 
L 332.136 111.0888 
z
" clip-path="url(#p862c10a0f9)" style="fill: #138a8a"/>
   </g>
   <g id="patch_11">
    <path d="M 353.619 152.946 
L 430.065 152.946 
Q 434.529 152.946 434.529 148.5108 
L 434.529 134.6508 
Q 434.529 130.2156 430.065 130.2156 
L 353.619 130.2156 
Q 349.155 130.2156 349.155 134.6508 
L 349.155 148.5108 
Q 349.155 152.946 353.619 152.946 
z
" clip-path="url(#p862c10a0f9)" style="fill: #138a8a"/>
   </g>
   <g id="patch_12">
    <path d="M 352.224 283.5072 
L 356.688 283.5072 
L 356.688 279.072 
L 352.224 279.072 
z
" clip-path="url(#p862c10a0f9)" style="fill: #138a8a"/>
   </g>
   <g id="patch_13">
    <path d="M 352.224 311.2272 
L 356.688 311.2272 
L 356.688 306.792 
L 352.224 306.792 
z
" clip-path="url(#p862c10a0f9)" style="fill: #138a8a"/>
   </g>
   <g id="patch_14">
    <path d="M 352.224 338.9472 
L 356.688 338.9472 
L 356.688 334.512 
L 352.224 334.512 
z
" clip-path="url(#p862c10a0f9)" style="fill: #138a8a"/>
   </g>
   <g id="patch_15">
    <path d="M 352.224 366.6672 
L 356.688 366.6672 
L 356.688 362.232 
L 352.224 362.232 
z
" clip-path="url(#p862c10a0f9)" style="fill: #138a8a"/>
   </g>
   <g id="patch_16">
    <path d="M 606.951 440.1252 
L 854.703 440.1252 
Q 859.167 440.1252 859.167 435.69 
L 859.167 114.138 
Q 859.167 109.7028 854.703 109.7028 
L 606.951 109.7028 
Q 602.487 109.7028 602.487 114.138 
L 602.487 435.69 
Q 602.487 440.1252 606.951 440.1252 
z
" clip-path="url(#p862c10a0f9)" style="fill: #ffffff; stroke: #d9dfdf; stroke-linejoin: miter"/>
   </g>
   <g id="patch_17">
    <path d="M 603.882 118.296 
L 857.772 118.296 
L 857.772 111.0888 
L 603.882 111.0888 
z
" clip-path="url(#p862c10a0f9)" style="fill: #a55d4f"/>
   </g>
   <g id="patch_18">
    <path d="M 625.365 152.946 
L 708.507 152.946 
Q 712.971 152.946 712.971 148.5108 
L 712.971 134.6508 
Q 712.971 130.2156 708.507 130.2156 
L 625.365 130.2156 
Q 620.901 130.2156 620.901 134.6508 
L 620.901 148.5108 
Q 620.901 152.946 625.365 152.946 
z
" clip-path="url(#p862c10a0f9)" style="fill: #a55d4f"/>
   </g>
   <g id="patch_19">
    <path d="M 623.97 283.5072 
L 628.434 283.5072 
L 628.434 279.072 
L 623.97 279.072 
z
" clip-path="url(#p862c10a0f9)" style="fill: #a55d4f"/>
   </g>
   <g id="patch_20">
    <path d="M 623.97 311.2272 
L 628.434 311.2272 
L 628.434 306.792 
L 623.97 306.792 
z
" clip-path="url(#p862c10a0f9)" style="fill: #a55d4f"/>
   </g>
   <g id="patch_21">
    <path d="M 623.97 338.9472 
L 628.434 338.9472 
L 628.434 334.512 
L 623.97 334.512 
z
" clip-path="url(#p862c10a0f9)" style="fill: #a55d4f"/>
   </g>
   <g id="patch_22">
    <path d="M 623.97 366.6672 
L 628.434 366.6672 
L 628.434 362.232 
L 623.97 362.232 
z
" clip-path="url(#p862c10a0f9)" style="fill: #a55d4f"/>
   </g>
   <g id="text_1">
    <!-- Pricing Options Compared -->
    <g style="fill: #082333" transform="translate(52.02 45.1152) scale(0.26 -0.26)">
     <defs>
      <path id="DejaVuSans-Bold-50" d="M 588 4666 
L 2584 4666 
Q 3475 4666 3951 4270 
Q 4428 3875 4428 3144 
Q 4428 2409 3951 2014 
Q 3475 1619 2584 1619 
L 1791 1619 
L 1791 0 
L 588 0 
L 588 4666 
z
M 1791 3794 
L 1791 2491 
L 2456 2491 
Q 2806 2491 2997 2661 
Q 3188 2831 3188 3144 
Q 3188 3456 2997 3625 
Q 2806 3794 2456 3794 
L 1791 3794 
z
" transform="scale(0.015625)"/>
      <path id="DejaVuSans-Bold-72" d="M 3138 2547 
Q 2991 2616 2845 2648 
Q 2700 2681 2553 2681 
Q 2122 2681 1889 2404 
Q 1656 2128 1656 1613 
L 1656 0 
L 538 0 
L 538 3500 
L 1656 3500 
L 1656 2925 
Q 1872 3269 2151 3426 
Q 2431 3584 2822 3584 
Q 2878 3584 2943 3579 
Q 3009 3575 3134 3559 
L 3138 2547 
z
" transform="scale(0.015625)"/>
      <path id="DejaVuSans-Bold-69" d="M 538 3500 
L 1656 3500 
L 1656 0 
L 538 0 
L 538 3500 
z
M 538 4863 
L 1656 4863 
L 1656 3950 
L 538 3950 
L 538 4863 
z
" transform="scale(0.015625)"/>
      <path id="DejaVuSans-Bold-63" d="M 3366 3391 
L 3366 2478 
Q 3138 2634 2908 2709 
Q 2678 2784 2431 2784 
Q 1963 2784 1702 2511 
Q 1441 2238 1441 1747 
Q 1441 1256 1702 982 
Q 1963 709 2431 709 
Q 2694 709 2930 787 
Q 3166 866 3366 1019 
L 3366 103 
Q 3103 6 2833 -42 
Q 2563 -91 2291 -91 
Q 1344 -91 809 395 
Q 275 881 275 1747 
Q 275 2613 809 3098 
Q 1344 3584 2291 3584 
Q 2566 3584 2833 3536 
Q 3100 3488 3366 3391 
z
" transform="scale(0.015625)"/>
      <path id="DejaVuSans-Bold-6e" d="M 4056 2131 
L 4056 0 
L 2931 0 
L 2931 347 
L 2931 1631 
Q 2931 2084 2911 2256 
Q 2891 2428 2841 2509 
Q 2775 2619 2662 2680 
Q 2550 2741 2406 2741 
Q 2056 2741 1856 2470 
Q 1656 2200 1656 1722 
L 1656 0 
L 538 0 
L 538 3500 
L 1656 3500 
L 1656 2988 
Q 1909 3294 2193 3439 
Q 2478 3584 2822 3584 
Q 3428 3584 3742 3212 
Q 4056 2841 4056 2131 
z
" transform="scale(0.015625)"/>
      <path id="DejaVuSans-Bold-67" d="M 2919 594 
Q 2688 288 2409 144 
Q 2131 0 1766 0 
Q 1125 0 706 504 
Q 288 1009 288 1791 
Q 288 2575 706 3076 
Q 1125 3578 1766 3578 
Q 2131 3578 2409 3434 
Q 2688 3291 2919 2981 
L 2919 3500 
L 4044 3500 
L 4044 353 
Q 4044 -491 3511 -936 
Q 2978 -1381 1966 -1381 
Q 1638 -1381 1331 -1331 
Q 1025 -1281 716 -1178 
L 716 -306 
Q 1009 -475 1290 -558 
Q 1572 -641 1856 -641 
Q 2406 -641 2662 -400 
Q 2919 -159 2919 353 
L 2919 594 
z
M 2181 2772 
Q 1834 2772 1640 2515 
Q 1447 2259 1447 1791 
Q 1447 1309 1634 1061 
Q 1822 813 2181 813 
Q 2531 813 2725 1069 
Q 2919 1325 2919 1791 
Q 2919 2259 2725 2515 
Q 2531 2772 2181 2772 
z
" transform="scale(0.015625)"/>
      <path id="DejaVuSans-Bold-20" transform="scale(0.015625)"/>
      <path id="DejaVuSans-Bold-4f" d="M 2719 3878 
Q 2169 3878 1866 3472 
Q 1563 3066 1563 2328 
Q 1563 1594 1866 1187 
Q 2169 781 2719 781 
Q 3272 781 3575 1187 
Q 3878 1594 3878 2328 
Q 3878 3066 3575 3472 
Q 3272 3878 2719 3878 
z
M 2719 4750 
Q 3844 4750 4481 4106 
Q 5119 3463 5119 2328 
Q 5119 1197 4481 553 
Q 3844 -91 2719 -91 
Q 1597 -91 958 553 
Q 319 1197 319 2328 
Q 319 3463 958 4106 
Q 1597 4750 2719 4750 
z
" transform="scale(0.015625)"/>
      <path id="DejaVuSans-Bold-70" d="M 1656 506 
L 1656 -1331 
L 538 -1331 
L 538 3500 
L 1656 3500 
L 1656 2988 
Q 1888 3294 2169 3439 
Q 2450 3584 2816 3584 
Q 3463 3584 3878 3070 
Q 4294 2556 4294 1747 
Q 4294 938 3878 423 
Q 3463 -91 2816 -91 
Q 2450 -91 2169 54 
Q 1888 200 1656 506 
z
M 2400 2772 
Q 2041 2772 1848 2508 
Q 1656 2244 1656 1747 
Q 1656 1250 1848 986 
Q 2041 722 2400 722 
Q 2759 722 2948 984 
Q 3138 1247 3138 1747 
Q 3138 2247 2948 2509 
Q 2759 2772 2400 2772 
z
" transform="scale(0.015625)"/>
      <path id="DejaVuSans-Bold-74" d="M 1759 4494 
L 1759 3500 
L 2913 3500 
L 2913 2700 
L 1759 2700 
L 1759 1216 
Q 1759 972 1856 886 
Q 1953 800 2241 800 
L 2816 800 
L 2816 0 
L 1856 0 
Q 1194 0 917 276 
Q 641 553 641 1216 
L 641 2700 
L 84 2700 
L 84 3500 
L 641 3500 
L 641 4494 
L 1759 4494 
z
" transform="scale(0.015625)"/>
      <path id="DejaVuSans-Bold-6f" d="M 2203 2784 
Q 1831 2784 1636 2517 
Q 1441 2250 1441 1747 
Q 1441 1244 1636 976 
Q 1831 709 2203 709 
Q 2569 709 2762 976 
Q 2956 1244 2956 1747 
Q 2956 2250 2762 2517 
Q 2569 2784 2203 2784 
z
M 2203 3584 
Q 3106 3584 3614 3096 
Q 4122 2609 4122 1747 
Q 4122 884 3614 396 
Q 3106 -91 2203 -91 
Q 1297 -91 786 396 
Q 275 884 275 1747 
Q 275 2609 786 3096 
Q 1297 3584 2203 3584 
z
" transform="scale(0.015625)"/>
      <path id="DejaVuSans-Bold-73" d="M 3272 3391 
L 3272 2541 
Q 2913 2691 2578 2766 
Q 2244 2841 1947 2841 
Q 1628 2841 1473 2761 
Q 1319 2681 1319 2516 
Q 1319 2381 1436 2309 
Q 1553 2238 1856 2203 
L 2053 2175 
Q 2913 2066 3209 1816 
Q 3506 1566 3506 1031 
Q 3506 472 3093 190 
Q 2681 -91 1863 -91 
Q 1516 -91 1145 -36 
Q 775 19 384 128 
L 384 978 
Q 719 816 1070 734 
Q 1422 653 1784 653 
Q 2113 653 2278 743 
Q 2444 834 2444 1013 
Q 2444 1163 2330 1236 
Q 2216 1309 1875 1350 
L 1678 1375 
Q 931 1469 631 1722 
Q 331 1975 331 2491 
Q 331 3047 712 3315 
Q 1094 3584 1881 3584 
Q 2191 3584 2531 3537 
Q 2872 3491 3272 3391 
z
" transform="scale(0.015625)"/>
      <path id="DejaVuSans-Bold-43" d="M 4288 256 
Q 3956 84 3597 -3 
Q 3238 -91 2847 -91 
Q 1681 -91 1000 561 
Q 319 1213 319 2328 
Q 319 3447 1000 4098 
Q 1681 4750 2847 4750 
Q 3238 4750 3597 4662 
Q 3956 4575 4288 4403 
L 4288 3438 
Q 3953 3666 3628 3772 
Q 3303 3878 2944 3878 
Q 2300 3878 1931 3465 
Q 1563 3053 1563 2328 
Q 1563 1606 1931 1193 
Q 2300 781 2944 781 
Q 3303 781 3628 887 
Q 3953 994 4288 1222 
L 4288 256 
z
" transform="scale(0.015625)"/>
      <path id="DejaVuSans-Bold-6d" d="M 3781 2919 
Q 3994 3244 4286 3414 
Q 4578 3584 4928 3584 
Q 5531 3584 5847 3212 
Q 6163 2841 6163 2131 
L 6163 0 
L 5038 0 
L 5038 1825 
Q 5041 1866 5042 1909 
Q 5044 1953 5044 2034 
Q 5044 2406 4934 2573 
Q 4825 2741 4581 2741 
Q 4263 2741 4089 2478 
Q 3916 2216 3909 1719 
L 3909 0 
L 2784 0 
L 2784 1825 
Q 2784 2406 2684 2573 
Q 2584 2741 2328 2741 
Q 2006 2741 1831 2477 
Q 1656 2213 1656 1722 
L 1656 0 
L 531 0 
L 531 3500 
L 1656 3500 
L 1656 2988 
Q 1863 3284 2130 3434 
Q 2397 3584 2719 3584 
Q 3081 3584 3359 3409 
Q 3638 3234 3781 2919 
z
" transform="scale(0.015625)"/>
      <path id="DejaVuSans-Bold-61" d="M 2106 1575 
Q 1756 1575 1579 1456 
Q 1403 1338 1403 1106 
Q 1403 894 1545 773 
Q 1688 653 1941 653 
Q 2256 653 2472 879 
Q 2688 1106 2688 1447 
L 2688 1575 
L 2106 1575 
z
M 3816 1997 
L 3816 0 
L 2688 0 
L 2688 519 
Q 2463 200 2181 54 
Q 1900 -91 1497 -91 
Q 953 -91 614 226 
Q 275 544 275 1050 
Q 275 1666 698 1953 
Q 1122 2241 2028 2241 
L 2688 2241 
L 2688 2328 
Q 2688 2594 2478 2717 
Q 2269 2841 1825 2841 
Q 1466 2841 1156 2769 
Q 847 2697 581 2553 
L 581 3406 
Q 941 3494 1303 3539 
Q 1666 3584 2028 3584 
Q 2975 3584 3395 3211 
Q 3816 2838 3816 1997 
z
" transform="scale(0.015625)"/>
      <path id="DejaVuSans-Bold-65" d="M 4031 1759 
L 4031 1441 
L 1416 1441 
Q 1456 1047 1700 850 
Q 1944 653 2381 653 
Q 2734 653 3104 758 
Q 3475 863 3866 1075 
L 3866 213 
Q 3469 63 3072 -14 
Q 2675 -91 2278 -91 
Q 1328 -91 801 392 
Q 275 875 275 1747 
Q 275 2603 792 3093 
Q 1309 3584 2216 3584 
Q 3041 3584 3536 3087 
Q 4031 2591 4031 1759 
z
M 2881 2131 
Q 2881 2450 2695 2645 
Q 2509 2841 2209 2841 
Q 1884 2841 1681 2658 
Q 1478 2475 1428 2131 
L 2881 2131 
z
" transform="scale(0.015625)"/>
      <path id="DejaVuSans-Bold-64" d="M 2919 2988 
L 2919 4863 
L 4044 4863 
L 4044 0 
L 2919 0 
L 2919 506 
Q 2688 197 2409 53 
Q 2131 -91 1766 -91 
Q 1119 -91 703 423 
Q 288 938 288 1747 
Q 288 2556 703 3070 
Q 1119 3584 1766 3584 
Q 2128 3584 2408 3439 
Q 2688 3294 2919 2988 
z
M 2181 722 
Q 2541 722 2730 984 
Q 2919 1247 2919 1747 
Q 2919 2247 2730 2509 
Q 2541 2772 2181 2772 
Q 1825 2772 1636 2509 
Q 1447 2247 1447 1747 
Q 1447 1247 1636 984 
Q 1825 722 2181 722 
z
" transform="scale(0.015625)"/>
     </defs>
     <use xlink:href="#DejaVuSans-Bold-50"/>
     <use xlink:href="#DejaVuSans-Bold-72" x="73.291016"/>
     <use xlink:href="#DejaVuSans-Bold-69" x="122.607422"/>
     <use xlink:href="#DejaVuSans-Bold-63" x="156.884766"/>
     <use xlink:href="#DejaVuSans-Bold-69" x="216.162109"/>
     <use xlink:href="#DejaVuSans-Bold-6e" x="250.439453"/>
     <use xlink:href="#DejaVuSans-Bold-67" x="321.630859"/>
     <use xlink:href="#DejaVuSans-Bold-20" x="393.212891"/>
     <use xlink:href="#DejaVuSans-Bold-4f" x="428.027344"/>
     <use xlink:href="#DejaVuSans-Bold-70" x="513.037109"/>
     <use xlink:href="#DejaVuSans-Bold-74" x="584.619141"/>
     <use xlink:href="#DejaVuSans-Bold-69" x="632.421875"/>
     <use xlink:href="#DejaVuSans-Bold-6f" x="666.699219"/>
     <use xlink:href="#DejaVuSans-Bold-6e" x="735.400391"/>
     <use xlink:href="#DejaVuSans-Bold-73" x="806.591797"/>
     <use xlink:href="#DejaVuSans-Bold-20" x="866.113281"/>
     <use xlink:href="#DejaVuSans-Bold-43" x="900.927734"/>
     <use xlink:href="#DejaVuSans-Bold-6f" x="974.316406"/>
     <use xlink:href="#DejaVuSans-Bold-6d" x="1043.017578"/>
     <use xlink:href="#DejaVuSans-Bold-70" x="1147.216797"/>
     <use xlink:href="#DejaVuSans-Bold-61" x="1218.798828"/>
     <use xlink:href="#DejaVuSans-Bold-72" x="1286.279297"/>
     <use xlink:href="#DejaVuSans-Bold-65" x="1335.595703"/>
     <use xlink:href="#DejaVuSans-Bold-64" x="1403.417969"/>
    </g>
   </g>
   <g id="text_2">
    <!-- Harper Fitness technology refresh options against the stated AUD $6.0m budget cap -->
    <g style="fill: #53616a" transform="translate(53.136 67.2912) scale(0.115 -0.115)">
     <defs>
      <path id="DejaVuSans-48" d="M 628 4666 
L 1259 4666 
L 1259 2753 
L 3553 2753 
L 3553 4666 
L 4184 4666 
L 4184 0 
L 3553 0 
L 3553 2222 
L 1259 2222 
L 1259 0 
L 628 0 
L 628 4666 
z
" transform="scale(0.015625)"/>
      <path id="DejaVuSans-61" d="M 2194 1759 
Q 1497 1759 1228 1600 
Q 959 1441 959 1056 
Q 959 750 1161 570 
Q 1363 391 1709 391 
Q 2188 391 2477 730 
Q 2766 1069 2766 1631 
L 2766 1759 
L 2194 1759 
z
M 3341 1997 
L 3341 0 
L 2766 0 
L 2766 531 
Q 2569 213 2275 61 
Q 1981 -91 1556 -91 
Q 1019 -91 701 211 
Q 384 513 384 1019 
Q 384 1609 779 1909 
Q 1175 2209 1959 2209 
L 2766 2209 
L 2766 2266 
Q 2766 2663 2505 2880 
Q 2244 3097 1772 3097 
Q 1472 3097 1187 3025 
Q 903 2953 641 2809 
L 641 3341 
Q 956 3463 1253 3523 
Q 1550 3584 1831 3584 
Q 2591 3584 2966 3190 
Q 3341 2797 3341 1997 
z
" transform="scale(0.015625)"/>
      <path id="DejaVuSans-72" d="M 2631 2963 
Q 2534 3019 2420 3045 
Q 2306 3072 2169 3072 
Q 1681 3072 1420 2755 
Q 1159 2438 1159 1844 
L 1159 0 
L 581 0 
L 581 3500 
L 1159 3500 
L 1159 2956 
Q 1341 3275 1631 3429 
Q 1922 3584 2338 3584 
Q 2397 3584 2469 3576 
Q 2541 3569 2628 3553 
L 2631 2963 
z
" transform="scale(0.015625)"/>
      <path id="DejaVuSans-70" d="M 1159 525 
L 1159 -1331 
L 581 -1331 
L 581 3500 
L 1159 3500 
L 1159 2969 
Q 1341 3281 1617 3432 
Q 1894 3584 2278 3584 
Q 2916 3584 3314 3078 
Q 3713 2572 3713 1747 
Q 3713 922 3314 415 
Q 2916 -91 2278 -91 
Q 1894 -91 1617 61 
Q 1341 213 1159 525 
z
M 3116 1747 
Q 3116 2381 2855 2742 
Q 2594 3103 2138 3103 
Q 1681 3103 1420 2742 
Q 1159 2381 1159 1747 
Q 1159 1113 1420 752 
Q 1681 391 2138 391 
Q 2594 391 2855 752 
Q 3116 1113 3116 1747 
z
" transform="scale(0.015625)"/>
      <path id="DejaVuSans-65" d="M 3597 1894 
L 3597 1613 
L 953 1613 
Q 991 1019 1311 708 
Q 1631 397 2203 397 
Q 2534 397 2845 478 
Q 3156 559 3463 722 
L 3463 178 
Q 3153 47 2828 -22 
Q 2503 -91 2169 -91 
Q 1331 -91 842 396 
Q 353 884 353 1716 
Q 353 2575 817 3079 
Q 1281 3584 2069 3584 
Q 2775 3584 3186 3129 
Q 3597 2675 3597 1894 
z
M 3022 2063 
Q 3016 2534 2758 2815 
Q 2500 3097 2075 3097 
Q 1594 3097 1305 2825 
Q 1016 2553 972 2059 
L 3022 2063 
z
" transform="scale(0.015625)"/>
      <path id="DejaVuSans-20" transform="scale(0.015625)"/>
      <path id="DejaVuSans-46" d="M 628 4666 
L 3309 4666 
L 3309 4134 
L 1259 4134 
L 1259 2759 
L 3109 2759 
L 3109 2228 
L 1259 2228 
L 1259 0 
L 628 0 
L 628 4666 
z
" transform="scale(0.015625)"/>
      <path id="DejaVuSans-69" d="M 603 3500 
L 1178 3500 
L 1178 0 
L 603 0 
L 603 3500 
z
M 603 4863 
L 1178 4863 
L 1178 4134 
L 603 4134 
L 603 4863 
z
" transform="scale(0.015625)"/>
      <path id="DejaVuSans-74" d="M 1172 4494 
L 1172 3500 
L 2356 3500 
L 2356 3053 
L 1172 3053 
L 1172 1153 
Q 1172 725 1289 603 
Q 1406 481 1766 481 
L 2356 481 
L 2356 0 
L 1766 0 
Q 1100 0 847 248 
Q 594 497 594 1153 
L 594 3053 
L 172 3053 
L 172 3500 
L 594 3500 
L 594 4494 
L 1172 4494 
z
" transform="scale(0.015625)"/>
      <path id="DejaVuSans-6e" d="M 3513 2113 
L 3513 0 
L 2938 0 
L 2938 2094 
Q 2938 2591 2744 2837 
Q 2550 3084 2163 3084 
Q 1697 3084 1428 2787 
Q 1159 2491 1159 1978 
L 1159 0 
L 581 0 
L 581 3500 
L 1159 3500 
L 1159 2956 
Q 1366 3272 1645 3428 
Q 1925 3584 2291 3584 
Q 2894 3584 3203 3211 
Q 3513 2838 3513 2113 
z
" transform="scale(0.015625)"/>
      <path id="DejaVuSans-73" d="M 2834 3397 
L 2834 2853 
Q 2591 2978 2328 3040 
Q 2066 3103 1784 3103 
Q 1356 3103 1142 2972 
Q 928 2841 928 2578 
Q 928 2378 1081 2264 
Q 1234 2150 1697 2047 
L 1894 2003 
Q 2506 1872 2764 1633 
Q 3022 1394 3022 966 
Q 3022 478 2636 193 
Q 2250 -91 1575 -91 
Q 1294 -91 989 -36 
Q 684 19 347 128 
L 347 722 
Q 666 556 975 473 
Q 1284 391 1588 391 
Q 1994 391 2212 530 
Q 2431 669 2431 922 
Q 2431 1156 2273 1281 
Q 2116 1406 1581 1522 
L 1381 1569 
Q 847 1681 609 1914 
Q 372 2147 372 2553 
Q 372 3047 722 3315 
Q 1072 3584 1716 3584 
Q 2034 3584 2315 3537 
Q 2597 3491 2834 3397 
z
" transform="scale(0.015625)"/>
      <path id="DejaVuSans-63" d="M 3122 3366 
L 3122 2828 
Q 2878 2963 2633 3030 
Q 2388 3097 2138 3097 
Q 1578 3097 1268 2742 
Q 959 2388 959 1747 
Q 959 1106 1268 751 
Q 1578 397 2138 397 
Q 2388 397 2633 464 
Q 2878 531 3122 666 
L 3122 134 
Q 2881 22 2623 -34 
Q 2366 -91 2075 -91 
Q 1284 -91 818 406 
Q 353 903 353 1747 
Q 353 2603 823 3093 
Q 1294 3584 2113 3584 
Q 2378 3584 2631 3529 
Q 2884 3475 3122 3366 
z
" transform="scale(0.015625)"/>
      <path id="DejaVuSans-68" d="M 3513 2113 
L 3513 0 
L 2938 0 
L 2938 2094 
Q 2938 2591 2744 2837 
Q 2550 3084 2163 3084 
Q 1697 3084 1428 2787 
Q 1159 2491 1159 1978 
L 1159 0 
L 581 0 
L 581 4863 
L 1159 4863 
L 1159 2956 
Q 1366 3272 1645 3428 
Q 1925 3584 2291 3584 
Q 2894 3584 3203 3211 
Q 3513 2838 3513 2113 
z
" transform="scale(0.015625)"/>
      <path id="DejaVuSans-6f" d="M 1959 3097 
Q 1497 3097 1228 2736 
Q 959 2375 959 1747 
Q 959 1119 1226 758 
Q 1494 397 1959 397 
Q 2419 397 2687 759 
Q 2956 1122 2956 1747 
Q 2956 2369 2687 2733 
Q 2419 3097 1959 3097 
z
M 1959 3584 
Q 2709 3584 3137 3096 
Q 3566 2609 3566 1747 
Q 3566 888 3137 398 
Q 2709 -91 1959 -91 
Q 1206 -91 779 398 
Q 353 888 353 1747 
Q 353 2609 779 3096 
Q 1206 3584 1959 3584 
z
" transform="scale(0.015625)"/>
      <path id="DejaVuSans-6c" d="M 603 4863 
L 1178 4863 
L 1178 0 
L 603 0 
L 603 4863 
z
" transform="scale(0.015625)"/>
      <path id="DejaVuSans-67" d="M 2906 1791 
Q 2906 2416 2648 2759 
Q 2391 3103 1925 3103 
Q 1463 3103 1205 2759 
Q 947 2416 947 1791 
Q 947 1169 1205 825 
Q 1463 481 1925 481 
Q 2391 481 2648 825 
Q 2906 1169 2906 1791 
z
M 3481 434 
Q 3481 -459 3084 -895 
Q 2688 -1331 1869 -1331 
Q 1566 -1331 1297 -1286 
Q 1028 -1241 775 -1147 
L 775 -588 
Q 1028 -725 1275 -790 
Q 1522 -856 1778 -856 
Q 2344 -856 2625 -561 
Q 2906 -266 2906 331 
L 2906 616 
Q 2728 306 2450 153 
Q 2172 0 1784 0 
Q 1141 0 747 490 
Q 353 981 353 1791 
Q 353 2603 747 3093 
Q 1141 3584 1784 3584 
Q 2172 3584 2450 3431 
Q 2728 3278 2906 2969 
L 2906 3500 
L 3481 3500 
L 3481 434 
z
" transform="scale(0.015625)"/>
      <path id="DejaVuSans-79" d="M 2059 -325 
Q 1816 -950 1584 -1140 
Q 1353 -1331 966 -1331 
L 506 -1331 
L 506 -850 
L 844 -850 
Q 1081 -850 1212 -737 
Q 1344 -625 1503 -206 
L 1606 56 
L 191 3500 
L 800 3500 
L 1894 763 
L 2988 3500 
L 3597 3500 
L 2059 -325 
z
" transform="scale(0.015625)"/>
      <path id="DejaVuSans-66" d="M 2375 4863 
L 2375 4384 
L 1825 4384 
Q 1516 4384 1395 4259 
Q 1275 4134 1275 3809 
L 1275 3500 
L 2222 3500 
L 2222 3053 
L 1275 3053 
L 1275 0 
L 697 0 
L 697 3053 
L 147 3053 
L 147 3500 
L 697 3500 
L 697 3744 
Q 697 4328 969 4595 
Q 1241 4863 1831 4863 
L 2375 4863 
z
" transform="scale(0.015625)"/>
      <path id="DejaVuSans-64" d="M 2906 2969 
L 2906 4863 
L 3481 4863 
L 3481 0 
L 2906 0 
L 2906 525 
Q 2725 213 2448 61 
Q 2172 -91 1784 -91 
Q 1150 -91 751 415 
Q 353 922 353 1747 
Q 353 2572 751 3078 
Q 1150 3584 1784 3584 
Q 2172 3584 2448 3432 
Q 2725 3281 2906 2969 
z
M 947 1747 
Q 947 1113 1208 752 
Q 1469 391 1925 391 
Q 2381 391 2643 752 
Q 2906 1113 2906 1747 
Q 2906 2381 2643 2742 
Q 2381 3103 1925 3103 
Q 1469 3103 1208 2742 
Q 947 2381 947 1747 
z
" transform="scale(0.015625)"/>
      <path id="DejaVuSans-41" d="M 2188 4044 
L 1331 1722 
L 3047 1722 
L 2188 4044 
z
M 1831 4666 
L 2547 4666 
L 4325 0 
L 3669 0 
L 3244 1197 
L 1141 1197 
L 716 0 
L 50 0 
L 1831 4666 
z
" transform="scale(0.015625)"/>
      <path id="DejaVuSans-55" d="M 556 4666 
L 1191 4666 
L 1191 1831 
Q 1191 1081 1462 751 
Q 1734 422 2344 422 
Q 2950 422 3222 751 
Q 3494 1081 3494 1831 
L 3494 4666 
L 4128 4666 
L 4128 1753 
Q 4128 841 3676 375 
Q 3225 -91 2344 -91 
Q 1459 -91 1007 375 
Q 556 841 556 1753 
L 556 4666 
z
" transform="scale(0.015625)"/>
      <path id="DejaVuSans-44" d="M 1259 4147 
L 1259 519 
L 2022 519 
Q 2988 519 3436 956 
Q 3884 1394 3884 2338 
Q 3884 3275 3436 3711 
Q 2988 4147 2022 4147 
L 1259 4147 
z
M 628 4666 
L 1925 4666 
Q 3281 4666 3915 4102 
Q 4550 3538 4550 2338 
Q 4550 1131 3912 565 
Q 3275 0 1925 0 
L 628 0 
L 628 4666 
z
" transform="scale(0.015625)"/>
      <path id="DejaVuSans-24" d="M 2163 -941 
L 1850 -941 
L 1847 0 
Q 1519 6 1191 76 
Q 863 147 531 288 
L 531 850 
Q 850 650 1176 548 
Q 1503 447 1850 444 
L 1850 1869 
Q 1159 1981 845 2250 
Q 531 2519 531 2988 
Q 531 3497 872 3790 
Q 1213 4084 1850 4128 
L 1850 4863 
L 2163 4863 
L 2163 4138 
Q 2453 4125 2725 4076 
Q 2997 4028 3256 3944 
L 3256 3397 
Q 2997 3528 2723 3600 
Q 2450 3672 2163 3684 
L 2163 2350 
Q 2872 2241 3206 1959 
Q 3541 1678 3541 1191 
Q 3541 663 3186 358 
Q 2831 53 2163 6 
L 2163 -941 
z
M 1850 2406 
L 1850 3688 
Q 1488 3647 1297 3481 
Q 1106 3316 1106 3041 
Q 1106 2772 1282 2622 
Q 1459 2472 1850 2406 
z
M 2163 1806 
L 2163 453 
Q 2559 506 2761 678 
Q 2963 850 2963 1131 
Q 2963 1406 2770 1568 
Q 2578 1731 2163 1806 
z
" transform="scale(0.015625)"/>
      <path id="DejaVuSans-36" d="M 2113 2584 
Q 1688 2584 1439 2293 
Q 1191 2003 1191 1497 
Q 1191 994 1439 701 
Q 1688 409 2113 409 
Q 2538 409 2786 701 
Q 3034 994 3034 1497 
Q 3034 2003 2786 2293 
Q 2538 2584 2113 2584 
z
M 3366 4563 
L 3366 3988 
Q 3128 4100 2886 4159 
Q 2644 4219 2406 4219 
Q 1781 4219 1451 3797 
Q 1122 3375 1075 2522 
Q 1259 2794 1537 2939 
Q 1816 3084 2150 3084 
Q 2853 3084 3261 2657 
Q 3669 2231 3669 1497 
Q 3669 778 3244 343 
Q 2819 -91 2113 -91 
Q 1303 -91 875 529 
Q 447 1150 447 2328 
Q 447 3434 972 4092 
Q 1497 4750 2381 4750 
Q 2619 4750 2861 4703 
Q 3103 4656 3366 4563 
z
" transform="scale(0.015625)"/>
      <path id="DejaVuSans-2e" d="M 684 794 
L 1344 794 
L 1344 0 
L 684 0 
L 684 794 
z
" transform="scale(0.015625)"/>
      <path id="DejaVuSans-30" d="M 2034 4250 
Q 1547 4250 1301 3770 
Q 1056 3291 1056 2328 
Q 1056 1369 1301 889 
Q 1547 409 2034 409 
Q 2525 409 2770 889 
Q 3016 1369 3016 2328 
Q 3016 3291 2770 3770 
Q 2525 4250 2034 4250 
z
M 2034 4750 
Q 2819 4750 3233 4129 
Q 3647 3509 3647 2328 
Q 3647 1150 3233 529 
Q 2819 -91 2034 -91 
Q 1250 -91 836 529 
Q 422 1150 422 2328 
Q 422 3509 836 4129 
Q 1250 4750 2034 4750 
z
" transform="scale(0.015625)"/>
      <path id="DejaVuSans-6d" d="M 3328 2828 
Q 3544 3216 3844 3400 
Q 4144 3584 4550 3584 
Q 5097 3584 5394 3201 
Q 5691 2819 5691 2113 
L 5691 0 
L 5113 0 
L 5113 2094 
Q 5113 2597 4934 2840 
Q 4756 3084 4391 3084 
Q 3944 3084 3684 2787 
Q 3425 2491 3425 1978 
L 3425 0 
L 2847 0 
L 2847 2094 
Q 2847 2600 2669 2842 
Q 2491 3084 2119 3084 
Q 1678 3084 1418 2786 
Q 1159 2488 1159 1978 
L 1159 0 
L 581 0 
L 581 3500 
L 1159 3500 
L 1159 2956 
Q 1356 3278 1631 3431 
Q 1906 3584 2284 3584 
Q 2666 3584 2933 3390 
Q 3200 3197 3328 2828 
z
" transform="scale(0.015625)"/>
      <path id="DejaVuSans-62" d="M 3116 1747 
Q 3116 2381 2855 2742 
Q 2594 3103 2138 3103 
Q 1681 3103 1420 2742 
Q 1159 2381 1159 1747 
Q 1159 1113 1420 752 
Q 1681 391 2138 391 
Q 2594 391 2855 752 
Q 3116 1113 3116 1747 
z
M 1159 2969 
Q 1341 3281 1617 3432 
Q 1894 3584 2278 3584 
Q 2916 3584 3314 3078 
Q 3713 2572 3713 1747 
Q 3713 922 3314 415 
Q 2916 -91 2278 -91 
Q 1894 -91 1617 61 
Q 1341 213 1159 525 
L 1159 0 
L 581 0 
L 581 4863 
L 1159 4863 
L 1159 2969 
z
" transform="scale(0.015625)"/>
      <path id="DejaVuSans-75" d="M 544 1381 
L 544 3500 
L 1119 3500 
L 1119 1403 
Q 1119 906 1312 657 
Q 1506 409 1894 409 
Q 2359 409 2629 706 
Q 2900 1003 2900 1516 
L 2900 3500 
L 3475 3500 
L 3475 0 
L 2900 0 
L 2900 538 
Q 2691 219 2414 64 
Q 2138 -91 1772 -91 
Q 1169 -91 856 284 
Q 544 659 544 1381 
z
M 1991 3584 
L 1991 3584 
z
" transform="scale(0.015625)"/>
     </defs>
     <use xlink:href="#DejaVuSans-48"/>
     <use xlink:href="#DejaVuSans-61" x="75.195312"/>
     <use xlink:href="#DejaVuSans-72" x="136.474609"/>
     <use xlink:href="#DejaVuSans-70" x="177.587891"/>
     <use xlink:href="#DejaVuSans-65" x="241.064453"/>
     <use xlink:href="#DejaVuSans-72" x="302.587891"/>
     <use xlink:href="#DejaVuSans-20" x="343.701172"/>
     <use xlink:href="#DejaVuSans-46" x="375.488281"/>
     <use xlink:href="#DejaVuSans-69" x="425.757812"/>
     <use xlink:href="#DejaVuSans-74" x="453.541016"/>
     <use xlink:href="#DejaVuSans-6e" x="492.75"/>
     <use xlink:href="#DejaVuSans-65" x="556.128906"/>
     <use xlink:href="#DejaVuSans-73" x="617.652344"/>
     <use xlink:href="#DejaVuSans-73" x="669.751953"/>
     <use xlink:href="#DejaVuSans-20" x="721.851562"/>
     <use xlink:href="#DejaVuSans-74" x="753.638672"/>
     <use xlink:href="#DejaVuSans-65" x="792.847656"/>
     <use xlink:href="#DejaVuSans-63" x="854.371094"/>
     <use xlink:href="#DejaVuSans-68" x="909.351562"/>
     <use xlink:href="#DejaVuSans-6e" x="972.730469"/>
     <use xlink:href="#DejaVuSans-6f" x="1036.109375"/>
     <use xlink:href="#DejaVuSans-6c" x="1097.291016"/>
     <use xlink:href="#DejaVuSans-6f" x="1125.074219"/>
     <use xlink:href="#DejaVuSans-67" x="1186.255859"/>
     <use xlink:href="#DejaVuSans-79" x="1249.732422"/>
     <use xlink:href="#DejaVuSans-20" x="1308.912109"/>
     <use xlink:href="#DejaVuSans-72" x="1340.699219"/>
     <use xlink:href="#DejaVuSans-65" x="1379.5625"/>
     <use xlink:href="#DejaVuSans-66" x="1441.085938"/>
     <use xlink:href="#DejaVuSans-72" x="1476.291016"/>
     <use xlink:href="#DejaVuSans-65" x="1515.154297"/>
     <use xlink:href="#DejaVuSans-73" x="1576.677734"/>
     <use xlink:href="#DejaVuSans-68" x="1628.777344"/>
     <use xlink:href="#DejaVuSans-20" x="1692.15625"/>
     <use xlink:href="#DejaVuSans-6f" x="1723.943359"/>
     <use xlink:href="#DejaVuSans-70" x="1785.125"/>
     <use xlink:href="#DejaVuSans-74" x="1848.601562"/>
     <use xlink:href="#DejaVuSans-69" x="1887.810547"/>
     <use xlink:href="#DejaVuSans-6f" x="1915.59375"/>
     <use xlink:href="#DejaVuSans-6e" x="1976.775391"/>
     <use xlink:href="#DejaVuSans-73" x="2040.154297"/>
     <use xlink:href="#DejaVuSans-20" x="2092.253906"/>
     <use xlink:href="#DejaVuSans-61" x="2124.041016"/>
     <use xlink:href="#DejaVuSans-67" x="2185.320312"/>
     <use xlink:href="#DejaVuSans-61" x="2248.796875"/>
     <use xlink:href="#DejaVuSans-69" x="2310.076172"/>
     <use xlink:href="#DejaVuSans-6e" x="2337.859375"/>
     <use xlink:href="#DejaVuSans-73" x="2401.238281"/>
     <use xlink:href="#DejaVuSans-74" x="2453.337891"/>
     <use xlink:href="#DejaVuSans-20" x="2492.546875"/>
     <use xlink:href="#DejaVuSans-74" x="2524.333984"/>
     <use xlink:href="#DejaVuSans-68" x="2563.542969"/>
     <use xlink:href="#DejaVuSans-65" x="2626.921875"/>
     <use xlink:href="#DejaVuSans-20" x="2688.445312"/>
     <use xlink:href="#DejaVuSans-73" x="2720.232422"/>
     <use xlink:href="#DejaVuSans-74" x="2772.332031"/>
     <use xlink:href="#DejaVuSans-61" x="2811.541016"/>
     <use xlink:href="#DejaVuSans-74" x="2872.820312"/>
     <use xlink:href="#DejaVuSans-65" x="2912.029297"/>
     <use xlink:href="#DejaVuSans-64" x="2973.552734"/>
     <use xlink:href="#DejaVuSans-20" x="3037.029297"/>
     <use xlink:href="#DejaVuSans-41" x="3068.816406"/>
     <use xlink:href="#DejaVuSans-55" x="3137.224609"/>
     <use xlink:href="#DejaVuSans-44" x="3210.417969"/>
     <use xlink:href="#DejaVuSans-20" x="3287.419922"/>
     <use xlink:href="#DejaVuSans-24" x="3319.207031"/>
     <use xlink:href="#DejaVuSans-36" x="3382.830078"/>
     <use xlink:href="#DejaVuSans-2e" x="3446.453125"/>
     <use xlink:href="#DejaVuSans-30" x="3478.240234"/>
     <use xlink:href="#DejaVuSans-6d" x="3541.863281"/>
     <use xlink:href="#DejaVuSans-20" x="3639.275391"/>
     <use xlink:href="#DejaVuSans-62" x="3671.0625"/>
     <use xlink:href="#DejaVuSans-75" x="3734.539062"/>
     <use xlink:href="#DejaVuSans-64" x="3797.917969"/>
     <use xlink:href="#DejaVuSans-67" x="3861.394531"/>
     <use xlink:href="#DejaVuSans-65" x="3924.871094"/>
     <use xlink:href="#DejaVuSans-74" x="3986.394531"/>
     <use xlink:href="#DejaVuSans-20" x="4025.603516"/>
     <use xlink:href="#DejaVuSans-63" x="4057.390625"/>
     <use xlink:href="#DejaVuSans-61" x="4112.371094"/>
     <use xlink:href="#DejaVuSans-70" x="4173.650391"/>
    </g>
   </g>
   <g id="text_3">
    <!-- Reduced scope -->
    <g style="fill: #ffffff" transform="translate(87.404 143.926269) scale(0.085 -0.085)">
     <defs>
      <path id="DejaVuSans-Bold-52" d="M 2297 2597 
Q 2675 2597 2839 2737 
Q 3003 2878 3003 3200 
Q 3003 3519 2839 3656 
Q 2675 3794 2297 3794 
L 1791 3794 
L 1791 2597 
L 2297 2597 
z
M 1791 1766 
L 1791 0 
L 588 0 
L 588 4666 
L 2425 4666 
Q 3347 4666 3776 4356 
Q 4206 4047 4206 3378 
Q 4206 2916 3982 2619 
Q 3759 2322 3309 2181 
Q 3556 2125 3751 1926 
Q 3947 1728 4147 1325 
L 4800 0 
L 3519 0 
L 2950 1159 
Q 2778 1509 2601 1637 
Q 2425 1766 2131 1766 
L 1791 1766 
z
" transform="scale(0.015625)"/>
      <path id="DejaVuSans-Bold-75" d="M 500 1363 
L 500 3500 
L 1625 3500 
L 1625 3150 
Q 1625 2866 1622 2436 
Q 1619 2006 1619 1863 
Q 1619 1441 1641 1255 
Q 1663 1069 1716 984 
Q 1784 875 1895 815 
Q 2006 756 2150 756 
Q 2500 756 2700 1025 
Q 2900 1294 2900 1772 
L 2900 3500 
L 4019 3500 
L 4019 0 
L 2900 0 
L 2900 506 
Q 2647 200 2364 54 
Q 2081 -91 1741 -91 
Q 1134 -91 817 281 
Q 500 653 500 1363 
z
" transform="scale(0.015625)"/>
     </defs>
     <use xlink:href="#DejaVuSans-Bold-52"/>
     <use xlink:href="#DejaVuSans-Bold-65" x="77.001953"/>
     <use xlink:href="#DejaVuSans-Bold-64" x="144.824219"/>
     <use xlink:href="#DejaVuSans-Bold-75" x="216.40625"/>
     <use xlink:href="#DejaVuSans-Bold-63" x="287.597656"/>
     <use xlink:href="#DejaVuSans-Bold-65" x="346.875"/>
     <use xlink:href="#DejaVuSans-Bold-64" x="414.697266"/>
     <use xlink:href="#DejaVuSans-Bold-20" x="486.279297"/>
     <use xlink:href="#DejaVuSans-Bold-73" x="521.09375"/>
     <use xlink:href="#DejaVuSans-Bold-63" x="580.615234"/>
     <use xlink:href="#DejaVuSans-Bold-6f" x="639.892578"/>
     <use xlink:href="#DejaVuSans-Bold-70" x="708.59375"/>
     <use xlink:href="#DejaVuSans-Bold-65" x="780.175781"/>
    </g>
   </g>
   <g id="text_4">
    <!-- Essential Digital Refresh -->
    <g style="fill: #082333" transform="translate(79.362 176.508) scale(0.13 -0.13)">
     <defs>
      <path id="DejaVuSans-Bold-45" d="M 588 4666 
L 3834 4666 
L 3834 3756 
L 1791 3756 
L 1791 2888 
L 3713 2888 
L 3713 1978 
L 1791 1978 
L 1791 909 
L 3903 909 
L 3903 0 
L 588 0 
L 588 4666 
z
" transform="scale(0.015625)"/>
      <path id="DejaVuSans-Bold-6c" d="M 538 4863 
L 1656 4863 
L 1656 0 
L 538 0 
L 538 4863 
z
" transform="scale(0.015625)"/>
      <path id="DejaVuSans-Bold-44" d="M 1791 3756 
L 1791 909 
L 2222 909 
Q 2959 909 3348 1275 
Q 3738 1641 3738 2338 
Q 3738 3031 3350 3393 
Q 2963 3756 2222 3756 
L 1791 3756 
z
M 588 4666 
L 1856 4666 
Q 2919 4666 3439 4514 
Q 3959 4363 4331 4000 
Q 4659 3684 4818 3271 
Q 4978 2859 4978 2338 
Q 4978 1809 4818 1395 
Q 4659 981 4331 666 
Q 3956 303 3431 151 
Q 2906 0 1856 0 
L 588 0 
L 588 4666 
z
" transform="scale(0.015625)"/>
      <path id="DejaVuSans-Bold-66" d="M 2841 4863 
L 2841 4128 
L 2222 4128 
Q 1984 4128 1890 4042 
Q 1797 3956 1797 3744 
L 1797 3500 
L 2753 3500 
L 2753 2700 
L 1797 2700 
L 1797 0 
L 678 0 
L 678 2700 
L 122 2700 
L 122 3500 
L 678 3500 
L 678 3744 
Q 678 4316 997 4589 
Q 1316 4863 1984 4863 
L 2841 4863 
z
" transform="scale(0.015625)"/>
      <path id="DejaVuSans-Bold-68" d="M 4056 2131 
L 4056 0 
L 2931 0 
L 2931 347 
L 2931 1625 
Q 2931 2084 2911 2256 
Q 2891 2428 2841 2509 
Q 2775 2619 2662 2680 
Q 2550 2741 2406 2741 
Q 2056 2741 1856 2470 
Q 1656 2200 1656 1722 
L 1656 0 
L 538 0 
L 538 4863 
L 1656 4863 
L 1656 2988 
Q 1909 3294 2193 3439 
Q 2478 3584 2822 3584 
Q 3428 3584 3742 3212 
Q 4056 2841 4056 2131 
z
" transform="scale(0.015625)"/>
     </defs>
     <use xlink:href="#DejaVuSans-Bold-45"/>
     <use xlink:href="#DejaVuSans-Bold-73" x="68.310547"/>
     <use xlink:href="#DejaVuSans-Bold-73" x="127.832031"/>
     <use xlink:href="#DejaVuSans-Bold-65" x="187.353516"/>
     <use xlink:href="#DejaVuSans-Bold-6e" x="255.175781"/>
     <use xlink:href="#DejaVuSans-Bold-74" x="326.367188"/>
     <use xlink:href="#DejaVuSans-Bold-69" x="374.169922"/>
     <use xlink:href="#DejaVuSans-Bold-61" x="408.447266"/>
     <use xlink:href="#DejaVuSans-Bold-6c" x="475.927734"/>
     <use xlink:href="#DejaVuSans-Bold-20" x="510.205078"/>
     <use xlink:href="#DejaVuSans-Bold-44" x="545.019531"/>
     <use xlink:href="#DejaVuSans-Bold-69" x="628.027344"/>
     <use xlink:href="#DejaVuSans-Bold-67" x="662.304688"/>
     <use xlink:href="#DejaVuSans-Bold-69" x="733.886719"/>
     <use xlink:href="#DejaVuSans-Bold-74" x="768.164062"/>
     <use xlink:href="#DejaVuSans-Bold-61" x="815.966797"/>
     <use xlink:href="#DejaVuSans-Bold-6c" x="883.447266"/>
     <use xlink:href="#DejaVuSans-Bold-20" x="917.724609"/>
     <use xlink:href="#DejaVuSans-Bold-52" x="952.539062"/>
     <use xlink:href="#DejaVuSans-Bold-65" x="1029.541016"/>
     <use xlink:href="#DejaVuSans-Bold-66" x="1097.363281"/>
     <use xlink:href="#DejaVuSans-Bold-72" x="1140.869141"/>
     <use xlink:href="#DejaVuSans-Bold-65" x="1190.185547"/>
     <use xlink:href="#DejaVuSans-Bold-73" x="1258.007812"/>
     <use xlink:href="#DejaVuSans-Bold-68" x="1317.529297"/>
    </g>
   </g>
   <g id="text_5">
    <!-- AUD $4.9m -->
    <g style="fill: #6e91b2" transform="translate(79.362 211.9896) scale(0.24 -0.24)">
     <defs>
      <path id="DejaVuSans-Bold-41" d="M 3419 850 
L 1538 850 
L 1241 0 
L 31 0 
L 1759 4666 
L 3194 4666 
L 4922 0 
L 3713 0 
L 3419 850 
z
M 1838 1716 
L 3116 1716 
L 2478 3572 
L 1838 1716 
z
" transform="scale(0.015625)"/>
      <path id="DejaVuSans-Bold-55" d="M 588 4666 
L 1791 4666 
L 1791 1869 
Q 1791 1291 1980 1042 
Q 2169 794 2597 794 
Q 3028 794 3217 1042 
Q 3406 1291 3406 1869 
L 3406 4666 
L 4609 4666 
L 4609 1869 
Q 4609 878 4112 393 
Q 3616 -91 2597 -91 
Q 1581 -91 1084 393 
Q 588 878 588 1869 
L 588 4666 
z
" transform="scale(0.015625)"/>
      <path id="DejaVuSans-Bold-24" d="M 2484 -941 
L 1978 -941 
L 1975 0 
Q 1584 16 1218 87 
Q 853 159 506 288 
L 506 1106 
Q 866 922 1233 823 
Q 1600 725 1978 713 
L 1978 1684 
L 1875 1703 
Q 1128 1834 814 2115 
Q 500 2397 500 2925 
Q 500 3484 883 3798 
Q 1266 4113 1975 4141 
L 1978 4863 
L 2484 4863 
L 2484 4153 
Q 2797 4128 3109 4075 
Q 3422 4022 3738 3938 
L 3738 3144 
Q 3425 3275 3112 3348 
Q 2800 3422 2484 3438 
L 2484 2541 
L 2584 2522 
Q 3378 2397 3698 2105 
Q 4019 1813 4019 1241 
Q 4019 666 3637 358 
Q 3256 50 2484 6 
L 2484 -941 
z
M 1978 2613 
L 1978 3428 
Q 1756 3416 1623 3308 
Q 1491 3200 1491 3034 
Q 1491 2850 1612 2745 
Q 1734 2641 1978 2613 
z
M 2484 1594 
L 2484 725 
Q 2756 728 2892 831 
Q 3028 934 3028 1141 
Q 3028 1353 2903 1458 
Q 2778 1563 2484 1594 
z
" transform="scale(0.015625)"/>
      <path id="DejaVuSans-Bold-34" d="M 2356 3675 
L 1038 1722 
L 2356 1722 
L 2356 3675 
z
M 2156 4666 
L 3494 4666 
L 3494 1722 
L 4159 1722 
L 4159 850 
L 3494 850 
L 3494 0 
L 2356 0 
L 2356 850 
L 288 850 
L 288 1881 
L 2156 4666 
z
" transform="scale(0.015625)"/>
      <path id="DejaVuSans-Bold-2e" d="M 653 1209 
L 1778 1209 
L 1778 0 
L 653 0 
L 653 1209 
z
" transform="scale(0.015625)"/>
      <path id="DejaVuSans-Bold-39" d="M 641 103 
L 641 966 
Q 928 831 1190 764 
Q 1453 697 1709 697 
Q 2247 697 2547 995 
Q 2847 1294 2900 1881 
Q 2688 1725 2447 1647 
Q 2206 1569 1925 1569 
Q 1209 1569 770 1986 
Q 331 2403 331 3084 
Q 331 3838 820 4291 
Q 1309 4744 2131 4744 
Q 3044 4744 3544 4128 
Q 4044 3513 4044 2388 
Q 4044 1231 3459 570 
Q 2875 -91 1856 -91 
Q 1528 -91 1228 -42 
Q 928 6 641 103 
z
M 2125 2350 
Q 2441 2350 2600 2554 
Q 2759 2759 2759 3169 
Q 2759 3575 2600 3781 
Q 2441 3988 2125 3988 
Q 1809 3988 1650 3781 
Q 1491 3575 1491 3169 
Q 1491 2759 1650 2554 
Q 1809 2350 2125 2350 
z
" transform="scale(0.015625)"/>
     </defs>
     <use xlink:href="#DejaVuSans-Bold-41"/>
     <use xlink:href="#DejaVuSans-Bold-55" x="74.267578"/>
     <use xlink:href="#DejaVuSans-Bold-44" x="155.46875"/>
     <use xlink:href="#DejaVuSans-Bold-20" x="238.476562"/>
     <use xlink:href="#DejaVuSans-Bold-24" x="273.291016"/>
     <use xlink:href="#DejaVuSans-Bold-34" x="342.871094"/>
     <use xlink:href="#DejaVuSans-Bold-2e" x="412.451172"/>
     <use xlink:href="#DejaVuSans-Bold-39" x="450.439453"/>
     <use xlink:href="#DejaVuSans-Bold-6d" x="520.019531"/>
    </g>
   </g>
   <g id="text_6">
    <!-- $1.1m below budget cap -->
    <g style="fill: #53616a" transform="translate(79.362 234.1656) scale(0.095 -0.095)">
     <defs>
      <path id="DejaVuSans-31" d="M 794 531 
L 1825 531 
L 1825 4091 
L 703 3866 
L 703 4441 
L 1819 4666 
L 2450 4666 
L 2450 531 
L 3481 531 
L 3481 0 
L 794 0 
L 794 531 
z
" transform="scale(0.015625)"/>
      <path id="DejaVuSans-77" d="M 269 3500 
L 844 3500 
L 1563 769 
L 2278 3500 
L 2956 3500 
L 3675 769 
L 4391 3500 
L 4966 3500 
L 4050 0 
L 3372 0 
L 2619 2869 
L 1863 0 
L 1184 0 
L 269 3500 
z
" transform="scale(0.015625)"/>
     </defs>
     <use xlink:href="#DejaVuSans-24"/>
     <use xlink:href="#DejaVuSans-31" x="63.623047"/>
     <use xlink:href="#DejaVuSans-2e" x="127.246094"/>
     <use xlink:href="#DejaVuSans-31" x="159.033203"/>
     <use xlink:href="#DejaVuSans-6d" x="222.65625"/>
     <use xlink:href="#DejaVuSans-20" x="320.068359"/>
     <use xlink:href="#DejaVuSans-62" x="351.855469"/>
     <use xlink:href="#DejaVuSans-65" x="415.332031"/>
     <use xlink:href="#DejaVuSans-6c" x="476.855469"/>
     <use xlink:href="#DejaVuSans-6f" x="504.638672"/>
     <use xlink:href="#DejaVuSans-77" x="565.820312"/>
     <use xlink:href="#DejaVuSans-20" x="647.607422"/>
     <use xlink:href="#DejaVuSans-62" x="679.394531"/>
     <use xlink:href="#DejaVuSans-75" x="742.871094"/>
     <use xlink:href="#DejaVuSans-64" x="806.25"/>
     <use xlink:href="#DejaVuSans-67" x="869.726562"/>
     <use xlink:href="#DejaVuSans-65" x="933.203125"/>
     <use xlink:href="#DejaVuSans-74" x="994.726562"/>
     <use xlink:href="#DejaVuSans-20" x="1033.935547"/>
     <use xlink:href="#DejaVuSans-63" x="1065.722656"/>
     <use xlink:href="#DejaVuSans-61" x="1120.703125"/>
     <use xlink:href="#DejaVuSans-70" x="1181.982422"/>
    </g>
   </g>
   <g id="text_7">
    <!-- Website refresh -->
    <g style="fill: #082333" transform="translate(91.638 282.995362) scale(0.102 -0.102)">
     <defs>
      <path id="DejaVuSans-57" d="M 213 4666 
L 850 4666 
L 1831 722 
L 2809 4666 
L 3519 4666 
L 4500 722 
L 5478 4666 
L 6119 4666 
L 4947 0 
L 4153 0 
L 3169 4050 
L 2175 0 
L 1381 0 
L 213 4666 
z
" transform="scale(0.015625)"/>
     </defs>
     <use xlink:href="#DejaVuSans-57"/>
     <use xlink:href="#DejaVuSans-65" x="93.001953"/>
     <use xlink:href="#DejaVuSans-62" x="154.525391"/>
     <use xlink:href="#DejaVuSans-73" x="218.001953"/>
     <use xlink:href="#DejaVuSans-69" x="270.101562"/>
     <use xlink:href="#DejaVuSans-74" x="297.884766"/>
     <use xlink:href="#DejaVuSans-65" x="337.09375"/>
     <use xlink:href="#DejaVuSans-20" x="398.617188"/>
     <use xlink:href="#DejaVuSans-72" x="430.404297"/>
     <use xlink:href="#DejaVuSans-65" x="469.267578"/>
     <use xlink:href="#DejaVuSans-66" x="530.791016"/>
     <use xlink:href="#DejaVuSans-72" x="565.996094"/>
     <use xlink:href="#DejaVuSans-65" x="604.859375"/>
     <use xlink:href="#DejaVuSans-73" x="666.382812"/>
     <use xlink:href="#DejaVuSans-68" x="718.482422"/>
    </g>
   </g>
   <g id="text_8">
    <!-- Core mobile app -->
    <g style="fill: #082333" transform="translate(91.638 310.715362) scale(0.102 -0.102)">
     <defs>
      <path id="DejaVuSans-43" d="M 4122 4306 
L 4122 3641 
Q 3803 3938 3442 4084 
Q 3081 4231 2675 4231 
Q 1875 4231 1450 3742 
Q 1025 3253 1025 2328 
Q 1025 1406 1450 917 
Q 1875 428 2675 428 
Q 3081 428 3442 575 
Q 3803 722 4122 1019 
L 4122 359 
Q 3791 134 3420 21 
Q 3050 -91 2638 -91 
Q 1578 -91 968 557 
Q 359 1206 359 2328 
Q 359 3453 968 4101 
Q 1578 4750 2638 4750 
Q 3056 4750 3426 4639 
Q 3797 4528 4122 4306 
z
" transform="scale(0.015625)"/>
     </defs>
     <use xlink:href="#DejaVuSans-43"/>
     <use xlink:href="#DejaVuSans-6f" x="69.824219"/>
     <use xlink:href="#DejaVuSans-72" x="131.005859"/>
     <use xlink:href="#DejaVuSans-65" x="169.869141"/>
     <use xlink:href="#DejaVuSans-20" x="231.392578"/>
     <use xlink:href="#DejaVuSans-6d" x="263.179688"/>
     <use xlink:href="#DejaVuSans-6f" x="360.591797"/>
     <use xlink:href="#DejaVuSans-62" x="421.773438"/>
     <use xlink:href="#DejaVuSans-69" x="485.25"/>
     <use xlink:href="#DejaVuSans-6c" x="513.033203"/>
     <use xlink:href="#DejaVuSans-65" x="540.816406"/>
     <use xlink:href="#DejaVuSans-20" x="602.339844"/>
     <use xlink:href="#DejaVuSans-61" x="634.126953"/>
     <use xlink:href="#DejaVuSans-70" x="695.40625"/>
     <use xlink:href="#DejaVuSans-70" x="758.882812"/>
    </g>
   </g>
   <g id="text_9">
    <!-- Basic chatbot -->
    <g style="fill: #082333" transform="translate(91.638 338.435362) scale(0.102 -0.102)">
     <defs>
      <path id="DejaVuSans-42" d="M 1259 2228 
L 1259 519 
L 2272 519 
Q 2781 519 3026 730 
Q 3272 941 3272 1375 
Q 3272 1813 3026 2020 
Q 2781 2228 2272 2228 
L 1259 2228 
z
M 1259 4147 
L 1259 2741 
L 2194 2741 
Q 2656 2741 2882 2914 
Q 3109 3088 3109 3444 
Q 3109 3797 2882 3972 
Q 2656 4147 2194 4147 
L 1259 4147 
z
M 628 4666 
L 2241 4666 
Q 2963 4666 3353 4366 
Q 3744 4066 3744 3513 
Q 3744 3084 3544 2831 
Q 3344 2578 2956 2516 
Q 3422 2416 3680 2098 
Q 3938 1781 3938 1306 
Q 3938 681 3513 340 
Q 3088 0 2303 0 
L 628 0 
L 628 4666 
z
" transform="scale(0.015625)"/>
     </defs>
     <use xlink:href="#DejaVuSans-42"/>
     <use xlink:href="#DejaVuSans-61" x="68.603516"/>
     <use xlink:href="#DejaVuSans-73" x="129.882812"/>
     <use xlink:href="#DejaVuSans-69" x="181.982422"/>
     <use xlink:href="#DejaVuSans-63" x="209.765625"/>
     <use xlink:href="#DejaVuSans-20" x="264.746094"/>
     <use xlink:href="#DejaVuSans-63" x="296.533203"/>
     <use xlink:href="#DejaVuSans-68" x="351.513672"/>
     <use xlink:href="#DejaVuSans-61" x="414.892578"/>
     <use xlink:href="#DejaVuSans-74" x="476.171875"/>
     <use xlink:href="#DejaVuSans-62" x="515.380859"/>
     <use xlink:href="#DejaVuSans-6f" x="578.857422"/>
     <use xlink:href="#DejaVuSans-74" x="640.039062"/>
    </g>
   </g>
   <g id="text_10">
    <!-- No wearables integration -->
    <g style="fill: #082333" transform="translate(91.638 366.155362) scale(0.102 -0.102)">
     <defs>
      <path id="DejaVuSans-4e" d="M 628 4666 
L 1478 4666 
L 3547 763 
L 3547 4666 
L 4159 4666 
L 4159 0 
L 3309 0 
L 1241 3903 
L 1241 0 
L 628 0 
L 628 4666 
z
" transform="scale(0.015625)"/>
     </defs>
     <use xlink:href="#DejaVuSans-4e"/>
     <use xlink:href="#DejaVuSans-6f" x="74.804688"/>
     <use xlink:href="#DejaVuSans-20" x="135.986328"/>
     <use xlink:href="#DejaVuSans-77" x="167.773438"/>
     <use xlink:href="#DejaVuSans-65" x="249.560547"/>
     <use xlink:href="#DejaVuSans-61" x="311.083984"/>
     <use xlink:href="#DejaVuSans-72" x="372.363281"/>
     <use xlink:href="#DejaVuSans-61" x="413.476562"/>
     <use xlink:href="#DejaVuSans-62" x="474.755859"/>
     <use xlink:href="#DejaVuSans-6c" x="538.232422"/>
     <use xlink:href="#DejaVuSans-65" x="566.015625"/>
     <use xlink:href="#DejaVuSans-73" x="627.539062"/>
     <use xlink:href="#DejaVuSans-20" x="679.638672"/>
     <use xlink:href="#DejaVuSans-69" x="711.425781"/>
     <use xlink:href="#DejaVuSans-6e" x="739.208984"/>
     <use xlink:href="#DejaVuSans-74" x="802.587891"/>
     <use xlink:href="#DejaVuSans-65" x="841.796875"/>
     <use xlink:href="#DejaVuSans-67" x="903.320312"/>
     <use xlink:href="#DejaVuSans-72" x="966.796875"/>
     <use xlink:href="#DejaVuSans-61" x="1007.910156"/>
     <use xlink:href="#DejaVuSans-74" x="1069.189453"/>
     <use xlink:href="#DejaVuSans-69" x="1108.398438"/>
     <use xlink:href="#DejaVuSans-6f" x="1136.181641"/>
     <use xlink:href="#DejaVuSans-6e" x="1197.363281"/>
    </g>
   </g>
   <g id="text_11">
    <!-- Recommended -->
    <g style="fill: #ffffff" transform="translate(356.515203 143.926269) scale(0.085 -0.085)">
     <use xlink:href="#DejaVuSans-Bold-52"/>
     <use xlink:href="#DejaVuSans-Bold-65" x="77.001953"/>
     <use xlink:href="#DejaVuSans-Bold-63" x="144.824219"/>
     <use xlink:href="#DejaVuSans-Bold-6f" x="204.101562"/>
     <use xlink:href="#DejaVuSans-Bold-6d" x="272.802734"/>
     <use xlink:href="#DejaVuSans-Bold-6d" x="377.001953"/>
     <use xlink:href="#DejaVuSans-Bold-65" x="481.201172"/>
     <use xlink:href="#DejaVuSans-Bold-6e" x="549.023438"/>
     <use xlink:href="#DejaVuSans-Bold-64" x="620.214844"/>
     <use xlink:href="#DejaVuSans-Bold-65" x="691.796875"/>
     <use xlink:href="#DejaVuSans-Bold-64" x="759.619141"/>
    </g>
   </g>
   <g id="text_12">
    <!-- Recommended Full Refresh -->
    <g style="fill: #082333" transform="translate(351.108 176.508) scale(0.13 -0.13)">
     <defs>
      <path id="DejaVuSans-Bold-46" d="M 588 4666 
L 3834 4666 
L 3834 3756 
L 1791 3756 
L 1791 2888 
L 3713 2888 
L 3713 1978 
L 1791 1978 
L 1791 0 
L 588 0 
L 588 4666 
z
" transform="scale(0.015625)"/>
     </defs>
     <use xlink:href="#DejaVuSans-Bold-52"/>
     <use xlink:href="#DejaVuSans-Bold-65" x="77.001953"/>
     <use xlink:href="#DejaVuSans-Bold-63" x="144.824219"/>
     <use xlink:href="#DejaVuSans-Bold-6f" x="204.101562"/>
     <use xlink:href="#DejaVuSans-Bold-6d" x="272.802734"/>
     <use xlink:href="#DejaVuSans-Bold-6d" x="377.001953"/>
     <use xlink:href="#DejaVuSans-Bold-65" x="481.201172"/>
     <use xlink:href="#DejaVuSans-Bold-6e" x="549.023438"/>
     <use xlink:href="#DejaVuSans-Bold-64" x="620.214844"/>
     <use xlink:href="#DejaVuSans-Bold-65" x="691.796875"/>
     <use xlink:href="#DejaVuSans-Bold-64" x="759.619141"/>
     <use xlink:href="#DejaVuSans-Bold-20" x="831.201172"/>
     <use xlink:href="#DejaVuSans-Bold-46" x="866.015625"/>
     <use xlink:href="#DejaVuSans-Bold-75" x="929.326172"/>
     <use xlink:href="#DejaVuSans-Bold-6c" x="1000.517578"/>
     <use xlink:href="#DejaVuSans-Bold-6c" x="1034.794922"/>
     <use xlink:href="#DejaVuSans-Bold-20" x="1069.072266"/>
     <use xlink:href="#DejaVuSans-Bold-52" x="1103.886719"/>
     <use xlink:href="#DejaVuSans-Bold-65" x="1180.888672"/>
     <use xlink:href="#DejaVuSans-Bold-66" x="1248.710938"/>
     <use xlink:href="#DejaVuSans-Bold-72" x="1292.216797"/>
     <use xlink:href="#DejaVuSans-Bold-65" x="1341.533203"/>
     <use xlink:href="#DejaVuSans-Bold-73" x="1409.355469"/>
     <use xlink:href="#DejaVuSans-Bold-68" x="1468.876953"/>
    </g>
   </g>
   <g id="text_13">
    <!-- AUD $5.8m -->
    <g style="fill: #138a8a" transform="translate(351.108 211.9896) scale(0.24 -0.24)">
     <defs>
      <path id="DejaVuSans-Bold-35" d="M 678 4666 
L 3669 4666 
L 3669 3781 
L 1638 3781 
L 1638 3059 
Q 1775 3097 1914 3117 
Q 2053 3138 2203 3138 
Q 3056 3138 3531 2711 
Q 4006 2284 4006 1522 
Q 4006 766 3489 337 
Q 2972 -91 2053 -91 
Q 1656 -91 1267 -14 
Q 878 63 494 219 
L 494 1166 
Q 875 947 1217 837 
Q 1559 728 1863 728 
Q 2300 728 2551 942 
Q 2803 1156 2803 1522 
Q 2803 1891 2551 2103 
Q 2300 2316 1863 2316 
Q 1603 2316 1309 2248 
Q 1016 2181 678 2041 
L 678 4666 
z
" transform="scale(0.015625)"/>
      <path id="DejaVuSans-Bold-38" d="M 2228 2088 
Q 1891 2088 1709 1903 
Q 1528 1719 1528 1375 
Q 1528 1031 1709 848 
Q 1891 666 2228 666 
Q 2563 666 2741 848 
Q 2919 1031 2919 1375 
Q 2919 1722 2741 1905 
Q 2563 2088 2228 2088 
z
M 1350 2484 
Q 925 2613 709 2878 
Q 494 3144 494 3541 
Q 494 4131 934 4440 
Q 1375 4750 2228 4750 
Q 3075 4750 3515 4442 
Q 3956 4134 3956 3541 
Q 3956 3144 3739 2878 
Q 3522 2613 3097 2484 
Q 3572 2353 3814 2058 
Q 4056 1763 4056 1313 
Q 4056 619 3595 264 
Q 3134 -91 2228 -91 
Q 1319 -91 855 264 
Q 391 619 391 1313 
Q 391 1763 633 2058 
Q 875 2353 1350 2484 
z
M 1631 3419 
Q 1631 3141 1786 2991 
Q 1941 2841 2228 2841 
Q 2509 2841 2662 2991 
Q 2816 3141 2816 3419 
Q 2816 3697 2662 3845 
Q 2509 3994 2228 3994 
Q 1941 3994 1786 3844 
Q 1631 3694 1631 3419 
z
" transform="scale(0.015625)"/>
     </defs>
     <use xlink:href="#DejaVuSans-Bold-41"/>
     <use xlink:href="#DejaVuSans-Bold-55" x="74.267578"/>
     <use xlink:href="#DejaVuSans-Bold-44" x="155.46875"/>
     <use xlink:href="#DejaVuSans-Bold-20" x="238.476562"/>
     <use xlink:href="#DejaVuSans-Bold-24" x="273.291016"/>
     <use xlink:href="#DejaVuSans-Bold-35" x="342.871094"/>
     <use xlink:href="#DejaVuSans-Bold-2e" x="412.451172"/>
     <use xlink:href="#DejaVuSans-Bold-38" x="450.439453"/>
     <use xlink:href="#DejaVuSans-Bold-6d" x="520.019531"/>
    </g>
   </g>
   <g id="text_14">
    <!-- $200k below budget cap -->
    <g style="fill: #53616a" transform="translate(351.108 234.1656) scale(0.095 -0.095)">
     <defs>
      <path id="DejaVuSans-32" d="M 1228 531 
L 3431 531 
L 3431 0 
L 469 0 
L 469 531 
Q 828 903 1448 1529 
Q 2069 2156 2228 2338 
Q 2531 2678 2651 2914 
Q 2772 3150 2772 3378 
Q 2772 3750 2511 3984 
Q 2250 4219 1831 4219 
Q 1534 4219 1204 4116 
Q 875 4013 500 3803 
L 500 4441 
Q 881 4594 1212 4672 
Q 1544 4750 1819 4750 
Q 2544 4750 2975 4387 
Q 3406 4025 3406 3419 
Q 3406 3131 3298 2873 
Q 3191 2616 2906 2266 
Q 2828 2175 2409 1742 
Q 1991 1309 1228 531 
z
" transform="scale(0.015625)"/>
      <path id="DejaVuSans-6b" d="M 581 4863 
L 1159 4863 
L 1159 1991 
L 2875 3500 
L 3609 3500 
L 1753 1863 
L 3688 0 
L 2938 0 
L 1159 1709 
L 1159 0 
L 581 0 
L 581 4863 
z
" transform="scale(0.015625)"/>
     </defs>
     <use xlink:href="#DejaVuSans-24"/>
     <use xlink:href="#DejaVuSans-32" x="63.623047"/>
     <use xlink:href="#DejaVuSans-30" x="127.246094"/>
     <use xlink:href="#DejaVuSans-30" x="190.869141"/>
     <use xlink:href="#DejaVuSans-6b" x="254.492188"/>
     <use xlink:href="#DejaVuSans-20" x="312.402344"/>
     <use xlink:href="#DejaVuSans-62" x="344.189453"/>
     <use xlink:href="#DejaVuSans-65" x="407.666016"/>
     <use xlink:href="#DejaVuSans-6c" x="469.189453"/>
     <use xlink:href="#DejaVuSans-6f" x="496.972656"/>
     <use xlink:href="#DejaVuSans-77" x="558.154297"/>
     <use xlink:href="#DejaVuSans-20" x="639.941406"/>
     <use xlink:href="#DejaVuSans-62" x="671.728516"/>
     <use xlink:href="#DejaVuSans-75" x="735.205078"/>
     <use xlink:href="#DejaVuSans-64" x="798.583984"/>
     <use xlink:href="#DejaVuSans-67" x="862.060547"/>
     <use xlink:href="#DejaVuSans-65" x="925.537109"/>
     <use xlink:href="#DejaVuSans-74" x="987.060547"/>
     <use xlink:href="#DejaVuSans-20" x="1026.269531"/>
     <use xlink:href="#DejaVuSans-63" x="1058.056641"/>
     <use xlink:href="#DejaVuSans-61" x="1113.037109"/>
     <use xlink:href="#DejaVuSans-70" x="1174.316406"/>
    </g>
   </g>
   <g id="text_15">
    <!-- Website + mobile app -->
    <g style="fill: #082333" transform="translate(363.384 282.995362) scale(0.102 -0.102)">
     <defs>
      <path id="DejaVuSans-2b" d="M 2944 4013 
L 2944 2272 
L 4684 2272 
L 4684 1741 
L 2944 1741 
L 2944 0 
L 2419 0 
L 2419 1741 
L 678 1741 
L 678 2272 
L 2419 2272 
L 2419 4013 
L 2944 4013 
z
" transform="scale(0.015625)"/>
     </defs>
     <use xlink:href="#DejaVuSans-57"/>
     <use xlink:href="#DejaVuSans-65" x="93.001953"/>
     <use xlink:href="#DejaVuSans-62" x="154.525391"/>
     <use xlink:href="#DejaVuSans-73" x="218.001953"/>
     <use xlink:href="#DejaVuSans-69" x="270.101562"/>
     <use xlink:href="#DejaVuSans-74" x="297.884766"/>
     <use xlink:href="#DejaVuSans-65" x="337.09375"/>
     <use xlink:href="#DejaVuSans-20" x="398.617188"/>
     <use xlink:href="#DejaVuSans-2b" x="430.404297"/>
     <use xlink:href="#DejaVuSans-20" x="514.193359"/>
     <use xlink:href="#DejaVuSans-6d" x="545.980469"/>
     <use xlink:href="#DejaVuSans-6f" x="643.392578"/>
     <use xlink:href="#DejaVuSans-62" x="704.574219"/>
     <use xlink:href="#DejaVuSans-69" x="768.050781"/>
     <use xlink:href="#DejaVuSans-6c" x="795.833984"/>
     <use xlink:href="#DejaVuSans-65" x="823.617188"/>
     <use xlink:href="#DejaVuSans-20" x="885.140625"/>
     <use xlink:href="#DejaVuSans-61" x="916.927734"/>
     <use xlink:href="#DejaVuSans-70" x="978.207031"/>
     <use xlink:href="#DejaVuSans-70" x="1041.683594"/>
    </g>
   </g>
   <g id="text_16">
    <!-- Chatbot and member support -->
    <g style="fill: #082333" transform="translate(363.384 310.715362) scale(0.102 -0.102)">
     <use xlink:href="#DejaVuSans-43"/>
     <use xlink:href="#DejaVuSans-68" x="69.824219"/>
     <use xlink:href="#DejaVuSans-61" x="133.203125"/>
     <use xlink:href="#DejaVuSans-74" x="194.482422"/>
     <use xlink:href="#DejaVuSans-62" x="233.691406"/>
     <use xlink:href="#DejaVuSans-6f" x="297.167969"/>
     <use xlink:href="#DejaVuSans-74" x="358.349609"/>
     <use xlink:href="#DejaVuSans-20" x="397.558594"/>
     <use xlink:href="#DejaVuSans-61" x="429.345703"/>
     <use xlink:href="#DejaVuSans-6e" x="490.625"/>
     <use xlink:href="#DejaVuSans-64" x="554.003906"/>
     <use xlink:href="#DejaVuSans-20" x="617.480469"/>
     <use xlink:href="#DejaVuSans-6d" x="649.267578"/>
     <use xlink:href="#DejaVuSans-65" x="746.679688"/>
     <use xlink:href="#DejaVuSans-6d" x="808.203125"/>
     <use xlink:href="#DejaVuSans-62" x="905.615234"/>
     <use xlink:href="#DejaVuSans-65" x="969.091797"/>
     <use xlink:href="#DejaVuSans-72" x="1030.615234"/>
     <use xlink:href="#DejaVuSans-20" x="1071.728516"/>
     <use xlink:href="#DejaVuSans-73" x="1103.515625"/>
     <use xlink:href="#DejaVuSans-75" x="1155.615234"/>
     <use xlink:href="#DejaVuSans-70" x="1218.994141"/>
     <use xlink:href="#DejaVuSans-70" x="1282.470703"/>
     <use xlink:href="#DejaVuSans-6f" x="1345.947266"/>
     <use xlink:href="#DejaVuSans-72" x="1407.128906"/>
     <use xlink:href="#DejaVuSans-74" x="1448.242188"/>
    </g>
   </g>
   <g id="text_17">
    <!-- Membership, booking and payment APIs -->
    <g style="fill: #082333" transform="translate(363.384 338.435362) scale(0.102 -0.102)">
     <defs>
      <path id="DejaVuSans-4d" d="M 628 4666 
L 1569 4666 
L 2759 1491 
L 3956 4666 
L 4897 4666 
L 4897 0 
L 4281 0 
L 4281 4097 
L 3078 897 
L 2444 897 
L 1241 4097 
L 1241 0 
L 628 0 
L 628 4666 
z
" transform="scale(0.015625)"/>
      <path id="DejaVuSans-2c" d="M 750 794 
L 1409 794 
L 1409 256 
L 897 -744 
L 494 -744 
L 750 256 
L 750 794 
z
" transform="scale(0.015625)"/>
      <path id="DejaVuSans-50" d="M 1259 4147 
L 1259 2394 
L 2053 2394 
Q 2494 2394 2734 2622 
Q 2975 2850 2975 3272 
Q 2975 3691 2734 3919 
Q 2494 4147 2053 4147 
L 1259 4147 
z
M 628 4666 
L 2053 4666 
Q 2838 4666 3239 4311 
Q 3641 3956 3641 3272 
Q 3641 2581 3239 2228 
Q 2838 1875 2053 1875 
L 1259 1875 
L 1259 0 
L 628 0 
L 628 4666 
z
" transform="scale(0.015625)"/>
      <path id="DejaVuSans-49" d="M 628 4666 
L 1259 4666 
L 1259 0 
L 628 0 
L 628 4666 
z
" transform="scale(0.015625)"/>
     </defs>
     <use xlink:href="#DejaVuSans-4d"/>
     <use xlink:href="#DejaVuSans-65" x="86.279297"/>
     <use xlink:href="#DejaVuSans-6d" x="147.802734"/>
     <use xlink:href="#DejaVuSans-62" x="245.214844"/>
     <use xlink:href="#DejaVuSans-65" x="308.691406"/>
     <use xlink:href="#DejaVuSans-72" x="370.214844"/>
     <use xlink:href="#DejaVuSans-73" x="411.328125"/>
     <use xlink:href="#DejaVuSans-68" x="463.427734"/>
     <use xlink:href="#DejaVuSans-69" x="526.806641"/>
     <use xlink:href="#DejaVuSans-70" x="554.589844"/>
     <use xlink:href="#DejaVuSans-2c" x="618.066406"/>
     <use xlink:href="#DejaVuSans-20" x="649.853516"/>
     <use xlink:href="#DejaVuSans-62" x="681.640625"/>
     <use xlink:href="#DejaVuSans-6f" x="745.117188"/>
     <use xlink:href="#DejaVuSans-6f" x="806.298828"/>
     <use xlink:href="#DejaVuSans-6b" x="867.480469"/>
     <use xlink:href="#DejaVuSans-69" x="925.390625"/>
     <use xlink:href="#DejaVuSans-6e" x="953.173828"/>
     <use xlink:href="#DejaVuSans-67" x="1016.552734"/>
     <use xlink:href="#DejaVuSans-20" x="1080.029297"/>
     <use xlink:href="#DejaVuSans-61" x="1111.816406"/>
     <use xlink:href="#DejaVuSans-6e" x="1173.095703"/>
     <use xlink:href="#DejaVuSans-64" x="1236.474609"/>
     <use xlink:href="#DejaVuSans-20" x="1299.951172"/>
     <use xlink:href="#DejaVuSans-70" x="1331.738281"/>
     <use xlink:href="#DejaVuSans-61" x="1395.214844"/>
     <use xlink:href="#DejaVuSans-79" x="1456.494141"/>
     <use xlink:href="#DejaVuSans-6d" x="1515.673828"/>
     <use xlink:href="#DejaVuSans-65" x="1613.085938"/>
     <use xlink:href="#DejaVuSans-6e" x="1674.609375"/>
     <use xlink:href="#DejaVuSans-74" x="1737.988281"/>
     <use xlink:href="#DejaVuSans-20" x="1777.197266"/>
     <use xlink:href="#DejaVuSans-41" x="1808.984375"/>
     <use xlink:href="#DejaVuSans-50" x="1877.392578"/>
     <use xlink:href="#DejaVuSans-49" x="1937.695312"/>
     <use xlink:href="#DejaVuSans-73" x="1967.1875"/>
    </g>
   </g>
   <g id="text_18">
    <!-- Approved wearable integrations -->
    <g style="fill: #082333" transform="translate(363.384 366.155362) scale(0.102 -0.102)">
     <defs>
      <path id="DejaVuSans-76" d="M 191 3500 
L 800 3500 
L 1894 563 
L 2988 3500 
L 3597 3500 
L 2284 0 
L 1503 0 
L 191 3500 
z
" transform="scale(0.015625)"/>
     </defs>
     <use xlink:href="#DejaVuSans-41"/>
     <use xlink:href="#DejaVuSans-70" x="68.408203"/>
     <use xlink:href="#DejaVuSans-70" x="131.884766"/>
     <use xlink:href="#DejaVuSans-72" x="195.361328"/>
     <use xlink:href="#DejaVuSans-6f" x="234.224609"/>
     <use xlink:href="#DejaVuSans-76" x="295.40625"/>
     <use xlink:href="#DejaVuSans-65" x="354.585938"/>
     <use xlink:href="#DejaVuSans-64" x="416.109375"/>
     <use xlink:href="#DejaVuSans-20" x="479.585938"/>
     <use xlink:href="#DejaVuSans-77" x="511.373047"/>
     <use xlink:href="#DejaVuSans-65" x="593.160156"/>
     <use xlink:href="#DejaVuSans-61" x="654.683594"/>
     <use xlink:href="#DejaVuSans-72" x="715.962891"/>
     <use xlink:href="#DejaVuSans-61" x="757.076172"/>
     <use xlink:href="#DejaVuSans-62" x="818.355469"/>
     <use xlink:href="#DejaVuSans-6c" x="881.832031"/>
     <use xlink:href="#DejaVuSans-65" x="909.615234"/>
     <use xlink:href="#DejaVuSans-20" x="971.138672"/>
     <use xlink:href="#DejaVuSans-69" x="1002.925781"/>
     <use xlink:href="#DejaVuSans-6e" x="1030.708984"/>
     <use xlink:href="#DejaVuSans-74" x="1094.087891"/>
     <use xlink:href="#DejaVuSans-65" x="1133.296875"/>
     <use xlink:href="#DejaVuSans-67" x="1194.820312"/>
     <use xlink:href="#DejaVuSans-72" x="1258.296875"/>
     <use xlink:href="#DejaVuSans-61" x="1299.410156"/>
     <use xlink:href="#DejaVuSans-74" x="1360.689453"/>
     <use xlink:href="#DejaVuSans-69" x="1399.898438"/>
     <use xlink:href="#DejaVuSans-6f" x="1427.681641"/>
     <use xlink:href="#DejaVuSans-6e" x="1488.863281"/>
     <use xlink:href="#DejaVuSans-73" x="1552.242188"/>
    </g>
   </g>
   <g id="text_19">
    <!-- Expanded scope -->
    <g style="fill: #ffffff" transform="translate(628.015961 143.926269) scale(0.085 -0.085)">
     <defs>
      <path id="DejaVuSans-Bold-78" d="M 1422 1791 
L 159 3500 
L 1344 3500 
L 2059 2463 
L 2784 3500 
L 3969 3500 
L 2706 1797 
L 4031 0 
L 2847 0 
L 2059 1106 
L 1281 0 
L 97 0 
L 1422 1791 
z
" transform="scale(0.015625)"/>
     </defs>
     <use xlink:href="#DejaVuSans-Bold-45"/>
     <use xlink:href="#DejaVuSans-Bold-78" x="68.310547"/>
     <use xlink:href="#DejaVuSans-Bold-70" x="132.8125"/>
     <use xlink:href="#DejaVuSans-Bold-61" x="204.394531"/>
     <use xlink:href="#DejaVuSans-Bold-6e" x="271.875"/>
     <use xlink:href="#DejaVuSans-Bold-64" x="343.066406"/>
     <use xlink:href="#DejaVuSans-Bold-65" x="414.648438"/>
     <use xlink:href="#DejaVuSans-Bold-64" x="482.470703"/>
     <use xlink:href="#DejaVuSans-Bold-20" x="554.052734"/>
     <use xlink:href="#DejaVuSans-Bold-73" x="588.867188"/>
     <use xlink:href="#DejaVuSans-Bold-63" x="648.388672"/>
     <use xlink:href="#DejaVuSans-Bold-6f" x="707.666016"/>
     <use xlink:href="#DejaVuSans-Bold-70" x="776.367188"/>
     <use xlink:href="#DejaVuSans-Bold-65" x="847.949219"/>
    </g>
   </g>
   <g id="text_20">
    <!-- Enhanced Growth Package -->
    <g style="fill: #082333" transform="translate(622.854 176.508) scale(0.13 -0.13)">
     <defs>
      <path id="DejaVuSans-Bold-47" d="M 4781 347 
Q 4331 128 3847 18 
Q 3363 -91 2847 -91 
Q 1681 -91 1000 561 
Q 319 1213 319 2328 
Q 319 3456 1012 4103 
Q 1706 4750 2913 4750 
Q 3378 4750 3804 4662 
Q 4231 4575 4609 4403 
L 4609 3438 
Q 4219 3659 3833 3768 
Q 3447 3878 3059 3878 
Q 2341 3878 1952 3476 
Q 1563 3075 1563 2328 
Q 1563 1588 1938 1184 
Q 2313 781 3003 781 
Q 3191 781 3352 804 
Q 3513 828 3641 878 
L 3641 1784 
L 2906 1784 
L 2906 2591 
L 4781 2591 
L 4781 347 
z
" transform="scale(0.015625)"/>
      <path id="DejaVuSans-Bold-77" d="M 225 3500 
L 1313 3500 
L 1900 1088 
L 2491 3500 
L 3425 3500 
L 4013 1113 
L 4603 3500 
L 5691 3500 
L 4769 0 
L 3547 0 
L 2956 2406 
L 2369 0 
L 1147 0 
L 225 3500 
z
" transform="scale(0.015625)"/>
      <path id="DejaVuSans-Bold-6b" d="M 538 4863 
L 1656 4863 
L 1656 2216 
L 2944 3500 
L 4244 3500 
L 2534 1894 
L 4378 0 
L 3022 0 
L 1656 1459 
L 1656 0 
L 538 0 
L 538 4863 
z
" transform="scale(0.015625)"/>
     </defs>
     <use xlink:href="#DejaVuSans-Bold-45"/>
     <use xlink:href="#DejaVuSans-Bold-6e" x="68.310547"/>
     <use xlink:href="#DejaVuSans-Bold-68" x="139.501953"/>
     <use xlink:href="#DejaVuSans-Bold-61" x="210.693359"/>
     <use xlink:href="#DejaVuSans-Bold-6e" x="278.173828"/>
     <use xlink:href="#DejaVuSans-Bold-63" x="349.365234"/>
     <use xlink:href="#DejaVuSans-Bold-65" x="408.642578"/>
     <use xlink:href="#DejaVuSans-Bold-64" x="476.464844"/>
     <use xlink:href="#DejaVuSans-Bold-20" x="548.046875"/>
     <use xlink:href="#DejaVuSans-Bold-47" x="582.861328"/>
     <use xlink:href="#DejaVuSans-Bold-72" x="664.941406"/>
     <use xlink:href="#DejaVuSans-Bold-6f" x="714.257812"/>
     <use xlink:href="#DejaVuSans-Bold-77" x="782.958984"/>
     <use xlink:href="#DejaVuSans-Bold-74" x="875.341797"/>
     <use xlink:href="#DejaVuSans-Bold-68" x="923.144531"/>
     <use xlink:href="#DejaVuSans-Bold-20" x="994.335938"/>
     <use xlink:href="#DejaVuSans-Bold-50" x="1029.150391"/>
     <use xlink:href="#DejaVuSans-Bold-61" x="1099.816406"/>
     <use xlink:href="#DejaVuSans-Bold-63" x="1167.296875"/>
     <use xlink:href="#DejaVuSans-Bold-6b" x="1226.574219"/>
     <use xlink:href="#DejaVuSans-Bold-61" x="1293.078125"/>
     <use xlink:href="#DejaVuSans-Bold-67" x="1360.558594"/>
     <use xlink:href="#DejaVuSans-Bold-65" x="1432.140625"/>
    </g>
   </g>
   <g id="text_21">
    <!-- AUD $6.4m -->
    <g style="fill: #a55d4f" transform="translate(622.854 211.9896) scale(0.24 -0.24)">
     <defs>
      <path id="DejaVuSans-Bold-36" d="M 2316 2303 
Q 2000 2303 1842 2098 
Q 1684 1894 1684 1484 
Q 1684 1075 1842 870 
Q 2000 666 2316 666 
Q 2634 666 2792 870 
Q 2950 1075 2950 1484 
Q 2950 1894 2792 2098 
Q 2634 2303 2316 2303 
z
M 3803 4544 
L 3803 3681 
Q 3506 3822 3243 3889 
Q 2981 3956 2731 3956 
Q 2194 3956 1894 3657 
Q 1594 3359 1544 2772 
Q 1750 2925 1990 3001 
Q 2231 3078 2516 3078 
Q 3231 3078 3670 2659 
Q 4109 2241 4109 1563 
Q 4109 813 3618 361 
Q 3128 -91 2303 -91 
Q 1394 -91 895 523 
Q 397 1138 397 2266 
Q 397 3422 980 4083 
Q 1563 4744 2578 4744 
Q 2900 4744 3203 4694 
Q 3506 4644 3803 4544 
z
" transform="scale(0.015625)"/>
     </defs>
     <use xlink:href="#DejaVuSans-Bold-41"/>
     <use xlink:href="#DejaVuSans-Bold-55" x="74.267578"/>
     <use xlink:href="#DejaVuSans-Bold-44" x="155.46875"/>
     <use xlink:href="#DejaVuSans-Bold-20" x="238.476562"/>
     <use xlink:href="#DejaVuSans-Bold-24" x="273.291016"/>
     <use xlink:href="#DejaVuSans-Bold-36" x="342.871094"/>
     <use xlink:href="#DejaVuSans-Bold-2e" x="412.451172"/>
     <use xlink:href="#DejaVuSans-Bold-34" x="450.439453"/>
     <use xlink:href="#DejaVuSans-Bold-6d" x="520.019531"/>
    </g>
   </g>
   <g id="text_22">
    <!-- $400k above budget cap -->
    <g style="fill: #53616a" transform="translate(622.854 234.1656) scale(0.095 -0.095)">
     <defs>
      <path id="DejaVuSans-34" d="M 2419 4116 
L 825 1625 
L 2419 1625 
L 2419 4116 
z
M 2253 4666 
L 3047 4666 
L 3047 1625 
L 3713 1625 
L 3713 1100 
L 3047 1100 
L 3047 0 
L 2419 0 
L 2419 1100 
L 313 1100 
L 313 1709 
L 2253 4666 
z
" transform="scale(0.015625)"/>
     </defs>
     <use xlink:href="#DejaVuSans-24"/>
     <use xlink:href="#DejaVuSans-34" x="63.623047"/>
     <use xlink:href="#DejaVuSans-30" x="127.246094"/>
     <use xlink:href="#DejaVuSans-30" x="190.869141"/>
     <use xlink:href="#DejaVuSans-6b" x="254.492188"/>
     <use xlink:href="#DejaVuSans-20" x="312.402344"/>
     <use xlink:href="#DejaVuSans-61" x="344.189453"/>
     <use xlink:href="#DejaVuSans-62" x="405.46875"/>
     <use xlink:href="#DejaVuSans-6f" x="468.945312"/>
     <use xlink:href="#DejaVuSans-76" x="530.126953"/>
     <use xlink:href="#DejaVuSans-65" x="589.306641"/>
     <use xlink:href="#DejaVuSans-20" x="650.830078"/>
     <use xlink:href="#DejaVuSans-62" x="682.617188"/>
     <use xlink:href="#DejaVuSans-75" x="746.09375"/>
     <use xlink:href="#DejaVuSans-64" x="809.472656"/>
     <use xlink:href="#DejaVuSans-67" x="872.949219"/>
     <use xlink:href="#DejaVuSans-65" x="936.425781"/>
     <use xlink:href="#DejaVuSans-74" x="997.949219"/>
     <use xlink:href="#DejaVuSans-20" x="1037.158203"/>
     <use xlink:href="#DejaVuSans-63" x="1068.945312"/>
     <use xlink:href="#DejaVuSans-61" x="1123.925781"/>
     <use xlink:href="#DejaVuSans-70" x="1185.205078"/>
    </g>
   </g>
   <g id="text_23">
    <!-- Full refresh scope -->
    <g style="fill: #082333" transform="translate(635.13 282.995362) scale(0.102 -0.102)">
     <use xlink:href="#DejaVuSans-46"/>
     <use xlink:href="#DejaVuSans-75" x="52.019531"/>
     <use xlink:href="#DejaVuSans-6c" x="115.398438"/>
     <use xlink:href="#DejaVuSans-6c" x="143.181641"/>
     <use xlink:href="#DejaVuSans-20" x="170.964844"/>
     <use xlink:href="#DejaVuSans-72" x="202.751953"/>
     <use xlink:href="#DejaVuSans-65" x="241.615234"/>
     <use xlink:href="#DejaVuSans-66" x="303.138672"/>
     <use xlink:href="#DejaVuSans-72" x="338.34375"/>
     <use xlink:href="#DejaVuSans-65" x="377.207031"/>
     <use xlink:href="#DejaVuSans-73" x="438.730469"/>
     <use xlink:href="#DejaVuSans-68" x="490.830078"/>
     <use xlink:href="#DejaVuSans-20" x="554.208984"/>
     <use xlink:href="#DejaVuSans-73" x="585.996094"/>
     <use xlink:href="#DejaVuSans-63" x="638.095703"/>
     <use xlink:href="#DejaVuSans-6f" x="693.076172"/>
     <use xlink:href="#DejaVuSans-70" x="754.257812"/>
     <use xlink:href="#DejaVuSans-65" x="817.734375"/>
    </g>
   </g>
   <g id="text_24">
    <!-- Virtual coaching -->
    <g style="fill: #082333" transform="translate(635.13 310.715362) scale(0.102 -0.102)">
     <defs>
      <path id="DejaVuSans-56" d="M 1831 0 
L 50 4666 
L 709 4666 
L 2188 738 
L 3669 4666 
L 4325 4666 
L 2547 0 
L 1831 0 
z
" transform="scale(0.015625)"/>
     </defs>
     <use xlink:href="#DejaVuSans-56"/>
     <use xlink:href="#DejaVuSans-69" x="66.158203"/>
     <use xlink:href="#DejaVuSans-72" x="93.941406"/>
     <use xlink:href="#DejaVuSans-74" x="135.054688"/>
     <use xlink:href="#DejaVuSans-75" x="174.263672"/>
     <use xlink:href="#DejaVuSans-61" x="237.642578"/>
     <use xlink:href="#DejaVuSans-6c" x="298.921875"/>
     <use xlink:href="#DejaVuSans-20" x="326.705078"/>
     <use xlink:href="#DejaVuSans-63" x="358.492188"/>
     <use xlink:href="#DejaVuSans-6f" x="413.472656"/>
     <use xlink:href="#DejaVuSans-61" x="474.654297"/>
     <use xlink:href="#DejaVuSans-63" x="535.933594"/>
     <use xlink:href="#DejaVuSans-68" x="590.914062"/>
     <use xlink:href="#DejaVuSans-69" x="654.292969"/>
     <use xlink:href="#DejaVuSans-6e" x="682.076172"/>
     <use xlink:href="#DejaVuSans-67" x="745.455078"/>
    </g>
   </g>
   <g id="text_25">
    <!-- In-depth analytics -->
    <g style="fill: #082333" transform="translate(635.13 338.435362) scale(0.102 -0.102)">
     <defs>
      <path id="DejaVuSans-2d" d="M 313 2009 
L 1997 2009 
L 1997 1497 
L 313 1497 
L 313 2009 
z
" transform="scale(0.015625)"/>
     </defs>
     <use xlink:href="#DejaVuSans-49"/>
     <use xlink:href="#DejaVuSans-6e" x="29.492188"/>
     <use xlink:href="#DejaVuSans-2d" x="92.871094"/>
     <use xlink:href="#DejaVuSans-64" x="128.955078"/>
     <use xlink:href="#DejaVuSans-65" x="192.431641"/>
     <use xlink:href="#DejaVuSans-70" x="253.955078"/>
     <use xlink:href="#DejaVuSans-74" x="317.431641"/>
     <use xlink:href="#DejaVuSans-68" x="356.640625"/>
     <use xlink:href="#DejaVuSans-20" x="420.019531"/>
     <use xlink:href="#DejaVuSans-61" x="451.806641"/>
     <use xlink:href="#DejaVuSans-6e" x="513.085938"/>
     <use xlink:href="#DejaVuSans-61" x="576.464844"/>
     <use xlink:href="#DejaVuSans-6c" x="637.744141"/>
     <use xlink:href="#DejaVuSans-79" x="665.527344"/>
     <use xlink:href="#DejaVuSans-74" x="724.707031"/>
     <use xlink:href="#DejaVuSans-69" x="763.916016"/>
     <use xlink:href="#DejaVuSans-63" x="791.699219"/>
     <use xlink:href="#DejaVuSans-73" x="846.679688"/>
    </g>
   </g>
   <g id="text_26">
    <!-- Extended post-deployment support -->
    <g style="fill: #082333" transform="translate(635.13 366.155362) scale(0.102 -0.102)">
     <defs>
      <path id="DejaVuSans-45" d="M 628 4666 
L 3578 4666 
L 3578 4134 
L 1259 4134 
L 1259 2753 
L 3481 2753 
L 3481 2222 
L 1259 2222 
L 1259 531 
L 3634 531 
L 3634 0 
L 628 0 
L 628 4666 
z
" transform="scale(0.015625)"/>
      <path id="DejaVuSans-78" d="M 3513 3500 
L 2247 1797 
L 3578 0 
L 2900 0 
L 1881 1375 
L 863 0 
L 184 0 
L 1544 1831 
L 300 3500 
L 978 3500 
L 1906 2253 
L 2834 3500 
L 3513 3500 
z
" transform="scale(0.015625)"/>
     </defs>
     <use xlink:href="#DejaVuSans-45"/>
     <use xlink:href="#DejaVuSans-78" x="63.183594"/>
     <use xlink:href="#DejaVuSans-74" x="122.363281"/>
     <use xlink:href="#DejaVuSans-65" x="161.572266"/>
     <use xlink:href="#DejaVuSans-6e" x="223.095703"/>
     <use xlink:href="#DejaVuSans-64" x="286.474609"/>
     <use xlink:href="#DejaVuSans-65" x="349.951172"/>
     <use xlink:href="#DejaVuSans-64" x="411.474609"/>
     <use xlink:href="#DejaVuSans-20" x="474.951172"/>
     <use xlink:href="#DejaVuSans-70" x="506.738281"/>
     <use xlink:href="#DejaVuSans-6f" x="570.214844"/>
     <use xlink:href="#DejaVuSans-73" x="631.396484"/>
     <use xlink:href="#DejaVuSans-74" x="683.496094"/>
     <use xlink:href="#DejaVuSans-2d" x="722.705078"/>
     <use xlink:href="#DejaVuSans-64" x="758.789062"/>
     <use xlink:href="#DejaVuSans-65" x="822.265625"/>
     <use xlink:href="#DejaVuSans-70" x="883.789062"/>
     <use xlink:href="#DejaVuSans-6c" x="947.265625"/>
     <use xlink:href="#DejaVuSans-6f" x="975.048828"/>
     <use xlink:href="#DejaVuSans-79" x="1036.230469"/>
     <use xlink:href="#DejaVuSans-6d" x="1095.410156"/>
     <use xlink:href="#DejaVuSans-65" x="1192.822266"/>
     <use xlink:href="#DejaVuSans-6e" x="1254.345703"/>
     <use xlink:href="#DejaVuSans-74" x="1317.724609"/>
     <use xlink:href="#DejaVuSans-20" x="1356.933594"/>
     <use xlink:href="#DejaVuSans-73" x="1388.720703"/>
     <use xlink:href="#DejaVuSans-75" x="1440.820312"/>
     <use xlink:href="#DejaVuSans-70" x="1504.199219"/>
     <use xlink:href="#DejaVuSans-70" x="1567.675781"/>
     <use xlink:href="#DejaVuSans-6f" x="1631.152344"/>
     <use xlink:href="#DejaVuSans-72" x="1692.333984"/>
     <use xlink:href="#DejaVuSans-74" x="1733.447266"/>
    </g>
   </g>
   <g id="text_27">
    <!-- AI declaration: OpenAI ChatGPT/Codex was used to generate this figure from group pricing inputs; full prompts and outputs are available on request. -->
    <g style="fill: #68757c" transform="translate(60.948 481.75155) scale(0.072 -0.072)">
     <defs>
      <path id="DejaVuSans-3a" d="M 750 794 
L 1409 794 
L 1409 0 
L 750 0 
L 750 794 
z
M 750 3309 
L 1409 3309 
L 1409 2516 
L 750 2516 
L 750 3309 
z
" transform="scale(0.015625)"/>
      <path id="DejaVuSans-4f" d="M 2522 4238 
Q 1834 4238 1429 3725 
Q 1025 3213 1025 2328 
Q 1025 1447 1429 934 
Q 1834 422 2522 422 
Q 3209 422 3611 934 
Q 4013 1447 4013 2328 
Q 4013 3213 3611 3725 
Q 3209 4238 2522 4238 
z
M 2522 4750 
Q 3503 4750 4090 4092 
Q 4678 3434 4678 2328 
Q 4678 1225 4090 567 
Q 3503 -91 2522 -91 
Q 1538 -91 948 565 
Q 359 1222 359 2328 
Q 359 3434 948 4092 
Q 1538 4750 2522 4750 
z
" transform="scale(0.015625)"/>
      <path id="DejaVuSans-47" d="M 3809 666 
L 3809 1919 
L 2778 1919 
L 2778 2438 
L 4434 2438 
L 4434 434 
Q 4069 175 3628 42 
Q 3188 -91 2688 -91 
Q 1594 -91 976 548 
Q 359 1188 359 2328 
Q 359 3472 976 4111 
Q 1594 4750 2688 4750 
Q 3144 4750 3555 4637 
Q 3966 4525 4313 4306 
L 4313 3634 
Q 3963 3931 3569 4081 
Q 3175 4231 2741 4231 
Q 1884 4231 1454 3753 
Q 1025 3275 1025 2328 
Q 1025 1384 1454 906 
Q 1884 428 2741 428 
Q 3075 428 3337 486 
Q 3600 544 3809 666 
z
" transform="scale(0.015625)"/>
      <path id="DejaVuSans-54" d="M -19 4666 
L 3928 4666 
L 3928 4134 
L 2272 4134 
L 2272 0 
L 1638 0 
L 1638 4134 
L -19 4134 
L -19 4666 
z
" transform="scale(0.015625)"/>
      <path id="DejaVuSans-2f" d="M 1625 4666 
L 2156 4666 
L 531 -594 
L 0 -594 
L 1625 4666 
z
" transform="scale(0.015625)"/>
      <path id="DejaVuSans-3b" d="M 750 3309 
L 1409 3309 
L 1409 2516 
L 750 2516 
L 750 3309 
z
M 750 794 
L 1409 794 
L 1409 256 
L 897 -744 
L 494 -744 
L 750 256 
L 750 794 
z
" transform="scale(0.015625)"/>
      <path id="DejaVuSans-71" d="M 947 1747 
Q 947 1113 1208 752 
Q 1469 391 1925 391 
Q 2381 391 2643 752 
Q 2906 1113 2906 1747 
Q 2906 2381 2643 2742 
Q 2381 3103 1925 3103 
Q 1469 3103 1208 2742 
Q 947 2381 947 1747 
z
M 2906 525 
Q 2725 213 2448 61 
Q 2172 -91 1784 -91 
Q 1150 -91 751 415 
Q 353 922 353 1747 
Q 353 2572 751 3078 
Q 1150 3584 1784 3584 
Q 2172 3584 2448 3432 
Q 2725 3281 2906 2969 
L 2906 3500 
L 3481 3500 
L 3481 -1331 
L 2906 -1331 
L 2906 525 
z
" transform="scale(0.015625)"/>
     </defs>
     <use xlink:href="#DejaVuSans-41"/>
     <use xlink:href="#DejaVuSans-49" x="68.408203"/>
     <use xlink:href="#DejaVuSans-20" x="97.900391"/>
     <use xlink:href="#DejaVuSans-64" x="129.6875"/>
     <use xlink:href="#DejaVuSans-65" x="193.164062"/>
     <use xlink:href="#DejaVuSans-63" x="254.6875"/>
     <use xlink:href="#DejaVuSans-6c" x="309.667969"/>
     <use xlink:href="#DejaVuSans-61" x="337.451172"/>
     <use xlink:href="#DejaVuSans-72" x="398.730469"/>
     <use xlink:href="#DejaVuSans-61" x="439.84375"/>
     <use xlink:href="#DejaVuSans-74" x="501.123047"/>
     <use xlink:href="#DejaVuSans-69" x="540.332031"/>
     <use xlink:href="#DejaVuSans-6f" x="568.115234"/>
     <use xlink:href="#DejaVuSans-6e" x="629.296875"/>
     <use xlink:href="#DejaVuSans-3a" x="692.675781"/>
     <use xlink:href="#DejaVuSans-20" x="726.367188"/>
     <use xlink:href="#DejaVuSans-4f" x="758.154297"/>
     <use xlink:href="#DejaVuSans-70" x="836.865234"/>
     <use xlink:href="#DejaVuSans-65" x="900.341797"/>
     <use xlink:href="#DejaVuSans-6e" x="961.865234"/>
     <use xlink:href="#DejaVuSans-41" x="1025.244141"/>
     <use xlink:href="#DejaVuSans-49" x="1093.652344"/>
     <use xlink:href="#DejaVuSans-20" x="1123.144531"/>
     <use xlink:href="#DejaVuSans-43" x="1154.931641"/>
     <use xlink:href="#DejaVuSans-68" x="1224.755859"/>
     <use xlink:href="#DejaVuSans-61" x="1288.134766"/>
     <use xlink:href="#DejaVuSans-74" x="1349.414062"/>
     <use xlink:href="#DejaVuSans-47" x="1388.623047"/>
     <use xlink:href="#DejaVuSans-50" x="1466.113281"/>
     <use xlink:href="#DejaVuSans-54" x="1526.416016"/>
     <use xlink:href="#DejaVuSans-2f" x="1587.5"/>
     <use xlink:href="#DejaVuSans-43" x="1621.191406"/>
     <use xlink:href="#DejaVuSans-6f" x="1691.015625"/>
     <use xlink:href="#DejaVuSans-64" x="1752.197266"/>
     <use xlink:href="#DejaVuSans-65" x="1815.673828"/>
     <use xlink:href="#DejaVuSans-78" x="1875.447266"/>
     <use xlink:href="#DejaVuSans-20" x="1934.626953"/>
     <use xlink:href="#DejaVuSans-77" x="1966.414062"/>
     <use xlink:href="#DejaVuSans-61" x="2048.201172"/>
     <use xlink:href="#DejaVuSans-73" x="2109.480469"/>
     <use xlink:href="#DejaVuSans-20" x="2161.580078"/>
     <use xlink:href="#DejaVuSans-75" x="2193.367188"/>
     <use xlink:href="#DejaVuSans-73" x="2256.746094"/>
     <use xlink:href="#DejaVuSans-65" x="2308.845703"/>
     <use xlink:href="#DejaVuSans-64" x="2370.369141"/>
     <use xlink:href="#DejaVuSans-20" x="2433.845703"/>
     <use xlink:href="#DejaVuSans-74" x="2465.632812"/>
     <use xlink:href="#DejaVuSans-6f" x="2504.841797"/>
     <use xlink:href="#DejaVuSans-20" x="2566.023438"/>
     <use xlink:href="#DejaVuSans-67" x="2597.810547"/>
     <use xlink:href="#DejaVuSans-65" x="2661.287109"/>
     <use xlink:href="#DejaVuSans-6e" x="2722.810547"/>
     <use xlink:href="#DejaVuSans-65" x="2786.189453"/>
     <use xlink:href="#DejaVuSans-72" x="2847.712891"/>
     <use xlink:href="#DejaVuSans-61" x="2888.826172"/>
     <use xlink:href="#DejaVuSans-74" x="2950.105469"/>
     <use xlink:href="#DejaVuSans-65" x="2989.314453"/>
     <use xlink:href="#DejaVuSans-20" x="3050.837891"/>
     <use xlink:href="#DejaVuSans-74" x="3082.625"/>
     <use xlink:href="#DejaVuSans-68" x="3121.833984"/>
     <use xlink:href="#DejaVuSans-69" x="3185.212891"/>
     <use xlink:href="#DejaVuSans-73" x="3212.996094"/>
     <use xlink:href="#DejaVuSans-20" x="3265.095703"/>
     <use xlink:href="#DejaVuSans-66" x="3296.882812"/>
     <use xlink:href="#DejaVuSans-69" x="3332.087891"/>
     <use xlink:href="#DejaVuSans-67" x="3359.871094"/>
     <use xlink:href="#DejaVuSans-75" x="3423.347656"/>
     <use xlink:href="#DejaVuSans-72" x="3486.726562"/>
     <use xlink:href="#DejaVuSans-65" x="3525.589844"/>
     <use xlink:href="#DejaVuSans-20" x="3587.113281"/>
     <use xlink:href="#DejaVuSans-66" x="3618.900391"/>
     <use xlink:href="#DejaVuSans-72" x="3654.105469"/>
     <use xlink:href="#DejaVuSans-6f" x="3692.96875"/>
     <use xlink:href="#DejaVuSans-6d" x="3754.150391"/>
     <use xlink:href="#DejaVuSans-20" x="3851.5625"/>
     <use xlink:href="#DejaVuSans-67" x="3883.349609"/>
     <use xlink:href="#DejaVuSans-72" x="3946.826172"/>
     <use xlink:href="#DejaVuSans-6f" x="3985.689453"/>
     <use xlink:href="#DejaVuSans-75" x="4046.871094"/>
     <use xlink:href="#DejaVuSans-70" x="4110.25"/>
     <use xlink:href="#DejaVuSans-20" x="4173.726562"/>
     <use xlink:href="#DejaVuSans-70" x="4205.513672"/>
     <use xlink:href="#DejaVuSans-72" x="4268.990234"/>
     <use xlink:href="#DejaVuSans-69" x="4310.103516"/>
     <use xlink:href="#DejaVuSans-63" x="4337.886719"/>
     <use xlink:href="#DejaVuSans-69" x="4392.867188"/>
     <use xlink:href="#DejaVuSans-6e" x="4420.650391"/>
     <use xlink:href="#DejaVuSans-67" x="4484.029297"/>
     <use xlink:href="#DejaVuSans-20" x="4547.505859"/>
     <use xlink:href="#DejaVuSans-69" x="4579.292969"/>
     <use xlink:href="#DejaVuSans-6e" x="4607.076172"/>
     <use xlink:href="#DejaVuSans-70" x="4670.455078"/>
     <use xlink:href="#DejaVuSans-75" x="4733.931641"/>
     <use xlink:href="#DejaVuSans-74" x="4797.310547"/>
     <use xlink:href="#DejaVuSans-73" x="4836.519531"/>
     <use xlink:href="#DejaVuSans-3b" x="4888.619141"/>
     <use xlink:href="#DejaVuSans-20" x="4922.310547"/>
     <use xlink:href="#DejaVuSans-66" x="4954.097656"/>
     <use xlink:href="#DejaVuSans-75" x="4989.302734"/>
     <use xlink:href="#DejaVuSans-6c" x="5052.681641"/>
     <use xlink:href="#DejaVuSans-6c" x="5080.464844"/>
     <use xlink:href="#DejaVuSans-20" x="5108.248047"/>
     <use xlink:href="#DejaVuSans-70" x="5140.035156"/>
     <use xlink:href="#DejaVuSans-72" x="5203.511719"/>
     <use xlink:href="#DejaVuSans-6f" x="5242.375"/>
     <use xlink:href="#DejaVuSans-6d" x="5303.556641"/>
     <use xlink:href="#DejaVuSans-70" x="5400.96875"/>
     <use xlink:href="#DejaVuSans-74" x="5464.445312"/>
     <use xlink:href="#DejaVuSans-73" x="5503.654297"/>
     <use xlink:href="#DejaVuSans-20" x="5555.753906"/>
     <use xlink:href="#DejaVuSans-61" x="5587.541016"/>
     <use xlink:href="#DejaVuSans-6e" x="5648.820312"/>
     <use xlink:href="#DejaVuSans-64" x="5712.199219"/>
     <use xlink:href="#DejaVuSans-20" x="5775.675781"/>
     <use xlink:href="#DejaVuSans-6f" x="5807.462891"/>
     <use xlink:href="#DejaVuSans-75" x="5868.644531"/>
     <use xlink:href="#DejaVuSans-74" x="5932.023438"/>
     <use xlink:href="#DejaVuSans-70" x="5971.232422"/>
     <use xlink:href="#DejaVuSans-75" x="6034.708984"/>
     <use xlink:href="#DejaVuSans-74" x="6098.087891"/>
     <use xlink:href="#DejaVuSans-73" x="6137.296875"/>
     <use xlink:href="#DejaVuSans-20" x="6189.396484"/>
     <use xlink:href="#DejaVuSans-61" x="6221.183594"/>
     <use xlink:href="#DejaVuSans-72" x="6282.462891"/>
     <use xlink:href="#DejaVuSans-65" x="6321.326172"/>
     <use xlink:href="#DejaVuSans-20" x="6382.849609"/>
     <use xlink:href="#DejaVuSans-61" x="6414.636719"/>
     <use xlink:href="#DejaVuSans-76" x="6475.916016"/>
     <use xlink:href="#DejaVuSans-61" x="6535.095703"/>
     <use xlink:href="#DejaVuSans-69" x="6596.375"/>
     <use xlink:href="#DejaVuSans-6c" x="6624.158203"/>
     <use xlink:href="#DejaVuSans-61" x="6651.941406"/>
     <use xlink:href="#DejaVuSans-62" x="6713.220703"/>
     <use xlink:href="#DejaVuSans-6c" x="6776.697266"/>
     <use xlink:href="#DejaVuSans-65" x="6804.480469"/>
     <use xlink:href="#DejaVuSans-20" x="6866.003906"/>
     <use xlink:href="#DejaVuSans-6f" x="6897.791016"/>
     <use xlink:href="#DejaVuSans-6e" x="6958.972656"/>
     <use xlink:href="#DejaVuSans-20" x="7022.351562"/>
     <use xlink:href="#DejaVuSans-72" x="7054.138672"/>
     <use xlink:href="#DejaVuSans-65" x="7093.001953"/>
     <use xlink:href="#DejaVuSans-71" x="7154.525391"/>
     <use xlink:href="#DejaVuSans-75" x="7218.001953"/>
     <use xlink:href="#DejaVuSans-65" x="7281.380859"/>
     <use xlink:href="#DejaVuSans-73" x="7342.904297"/>
     <use xlink:href="#DejaVuSans-74" x="7395.003906"/>
     <use xlink:href="#DejaVuSans-2e" x="7434.212891"/>
    </g>
   </g>
  </g>
 </g>
 <defs>
  <clipPath id="p862c10a0f9">
   <rect x="12.96" y="12.96" width="892.8" height="498.96"/>
  </clipPath>
 </defs>
</svg>
